<svg width="428" height="467" viewBox="0 0 428 467" fill="none" xmlns="http://www.w3.org/2000/svg">
    <g filter="url(#filter0_d_1926_3017)">
        <path d="M120.062 350.588C147.119 350.588 169.054 328.822 169.054 301.973C169.054 275.123 147.119 253.357 120.062 253.357C93.0045 253.357 71.0701 275.123 71.0701 301.973C71.0701 328.822 93.0045 350.588 120.062 350.588Z" fill="#DB3F27"/>
        <path fill-rule="evenodd" clip-rule="evenodd" d="M119.761 64.8398C142.66 64.8398 161.226 93.633 161.226 129.148C161.226 164.664 142.663 193.457 119.761 193.457C96.8595 193.457 78.2963 164.664 78.2963 129.148C78.2963 93.633 96.8623 64.8398 119.761 64.8398Z" fill="#DB3F27"/>
        <path fill-rule="evenodd" clip-rule="evenodd" d="M254.863 35.4452C280.563 44.9967 278.395 68.2699 265.835 101.529C253.274 134.788 235.077 165.44 209.376 155.889C183.675 146.337 173.024 111.654 185.585 78.3947C198.145 45.1354 229.163 25.903 254.863 35.4452Z" fill="#DB3F27"/>
        <path fill-rule="evenodd" clip-rule="evenodd" d="M367.795 134.475C381.585 154.346 368.089 170.166 341.934 188.003C315.78 205.839 286.865 218.95 273.083 199.08C259.301 179.209 269.323 148.632 295.478 130.795C321.633 112.959 354.009 114.605 367.795 134.475Z" fill="#DB3F27"/>
        <path fill-rule="evenodd" clip-rule="evenodd" d="M212.267 82.5566C281.855 82.5566 338.267 138.627 338.267 207.79C338.267 276.953 281.858 333.032 212.267 333.032C142.676 333.032 86.2667 276.962 86.2667 207.79C86.2667 138.618 142.679 82.5566 212.267 82.5566Z" fill="url(#paint0_linear_1926_3017)"/>
        <g filter="url(#filter1_i_1926_3017)">
            <path fill-rule="evenodd" clip-rule="evenodd" d="M219.811 82.5566C289.399 82.5566 345.811 138.627 345.811 207.79C345.811 276.953 289.402 333.032 219.811 333.032C150.22 333.032 93.811 276.962 93.811 207.79C93.811 138.618 150.223 82.5566 219.811 82.5566Z" fill="url(#paint1_angular_1926_3017)"/>
        </g>
        <g filter="url(#filter2_d_1926_3017)">
            <path fill-rule="evenodd" clip-rule="evenodd" d="M219.937 117.97C237.888 117.94 255.444 123.195 270.384 133.07C285.324 142.945 296.977 156.996 303.867 173.444C310.757 189.893 312.576 208 309.092 225.474C305.608 242.949 296.979 259.005 284.296 271.611C271.614 284.217 255.448 292.807 237.844 296.293C220.24 299.779 201.99 298.005 185.402 291.195C168.815 284.385 154.636 272.846 144.66 258.037C134.684 243.228 129.359 225.815 129.359 208.002C129.34 184.144 138.872 161.256 155.859 144.372C172.845 127.488 195.894 117.991 219.937 117.97Z" fill="url(#paint2_linear_1926_3017)"/>
        </g>
        <g filter="url(#filter3_i_1926_3017)">
            <path fill-rule="evenodd" clip-rule="evenodd" d="M218.355 117.985C235.672 118.3 252.55 123.529 266.985 133.07C281.926 142.945 293.578 156.996 300.468 173.444C307.358 189.893 309.177 208 305.693 225.474C302.209 242.949 293.58 259.005 280.897 271.611C268.215 284.217 252.049 292.807 234.445 296.293C229.131 297.345 223.758 297.918 218.389 298.018C207.117 297.809 195.925 295.515 185.402 291.195C168.815 284.385 154.636 272.846 144.66 258.037C134.684 243.228 129.359 225.815 129.359 208.002C129.34 184.144 138.872 161.256 155.859 144.372C172.472 127.858 194.885 118.411 218.355 117.985Z" fill="url(#paint3_angular_1926_3017)"/>
        </g>
        <path fill-rule="evenodd" clip-rule="evenodd" d="M279.619 207.836C279.619 207.836 254.609 206.523 236.29 224.747C218.787 242.158 220.009 267.105 220.009 267.105C220.009 267.105 222.022 242.796 203.62 224.488C188.871 209.824 160.398 207.836 160.398 207.836C160.398 207.836 184.267 211.396 203.753 192.015C222.352 173.513 220.009 148.557 220.009 148.557C220.009 148.557 219.48 175.168 236.194 191.793C254.204 209.713 279.619 207.836 279.619 207.836Z" fill="url(#paint4_linear_1926_3017)"/>
        <path fill-rule="evenodd" clip-rule="evenodd" d="M266.036 40.0413C272.659 43.8374 277.999 49.4969 281.381 56.3042C284.763 63.1116 286.035 70.7611 285.036 78.2857C284.037 85.8103 280.812 92.8722 275.769 98.5783C270.727 104.285 264.092 108.379 256.704 110.344C249.317 112.309 241.508 112.056 234.265 109.617C227.022 107.178 220.671 102.663 216.014 96.6431C211.356 90.6227 208.603 83.3673 208.1 75.7941C207.598 68.2209 209.37 60.6699 213.192 54.0959C215.729 49.7274 219.11 45.898 223.14 42.827C227.169 39.7559 231.77 37.5033 236.678 36.1979C241.586 34.8926 246.705 34.5602 251.742 35.2197C256.78 35.8792 261.637 37.5176 266.036 40.0413Z" fill="url(#paint5_linear_1926_3017)"/>
        <path d="M344.305 189.049C361.81 189.049 376 174.968 376 157.598C376 140.227 361.81 126.146 344.305 126.146C326.8 126.146 312.61 140.227 312.61 157.598C312.61 174.968 326.8 189.049 344.305 189.049Z" fill="url(#paint6_linear_1926_3017)"/>
        <path fill-rule="evenodd" clip-rule="evenodd" d="M344.418 178.255C339.817 184.098 326.148 192.106 310.156 197.145C290.025 203.497 280.814 199.891 280.814 199.891C280.814 199.891 297.931 181.879 318.725 155.943C319.64 154.708 320.777 153.651 322.079 152.827C329.807 147.547 340.267 148.805 345.917 156.276C348.368 159.508 349.564 163.507 349.289 167.542C349.014 171.577 347.285 175.38 344.418 178.255Z" fill="url(#paint7_linear_1926_3017)"/>
        <path fill-rule="evenodd" clip-rule="evenodd" d="M109.553 66.8547C116.253 62.9229 123.978 61.0522 131.75 61.4791C139.523 61.9061 146.992 64.6116 153.214 69.2532C159.436 73.8949 164.13 80.264 166.703 87.5542C169.275 94.8445 169.61 102.728 167.665 110.207C165.72 117.687 161.583 124.425 155.776 129.57C149.97 134.715 142.757 138.035 135.048 139.109C127.34 140.184 119.484 138.965 112.474 135.606C105.464 132.248 99.6156 126.901 95.6694 120.243C90.4007 111.331 88.9036 100.71 91.5054 90.7051C94.1073 80.7 100.596 72.1246 109.553 66.8547Z" fill="url(#paint8_linear_1926_3017)"/>
        <path fill-rule="evenodd" clip-rule="evenodd" d="M160.201 171.671C160.201 171.671 145.36 147.427 122.808 116.738C121.697 115.37 120.866 113.8 120.362 112.115C118.582 107.574 118.596 102.532 120.402 98.0005C122.207 93.4689 125.672 89.7816 130.101 87.6771C134.531 85.5727 139.598 85.2065 144.287 86.6518C148.977 88.0971 152.944 91.2473 155.392 95.4714C160.498 102.295 165.263 119.697 166.032 138.735C167.001 162.702 160.201 171.671 160.201 171.671Z" fill="url(#paint9_linear_1926_3017)"/>
        <path fill-rule="evenodd" clip-rule="evenodd" d="M272.425 80.6593C272.917 89.2123 267.511 106.263 257.915 122.573C245.73 143.294 235.132 147.224 235.132 147.224C235.132 147.224 235.772 118.875 233.414 80.9737C233.209 79.2295 233.361 77.4623 233.858 75.7772C236.49 65.4398 246.187 58.5141 256.746 60.5761C261.364 61.4784 265.496 64.0097 268.379 67.7018C271.261 71.3938 272.698 75.9968 272.425 80.6593Z" fill="url(#paint10_linear_1926_3017)"/>
        <path fill-rule="evenodd" clip-rule="evenodd" d="M99.2234 343.951C106.023 348.859 114.136 351.655 122.538 351.987C130.939 352.318 139.251 350.17 146.421 345.813C153.592 341.457 159.3 335.087 162.822 327.512C166.345 319.936 167.524 311.493 166.21 303.252C164.897 295.011 161.15 287.342 155.444 281.214C149.737 275.087 142.328 270.776 134.152 268.828C125.977 266.879 117.402 267.381 109.514 270.269C101.626 273.157 94.778 278.301 89.8365 285.051C83.2245 294.102 80.4996 305.385 82.2593 316.427C84.019 327.468 90.1196 337.367 99.2234 343.951Z" fill="url(#paint11_linear_1926_3017)"/>
        <path fill-rule="evenodd" clip-rule="evenodd" d="M210.977 306.272C210.977 306.272 204.018 317.451 177.254 326.632C156.125 333.882 135.087 336.175 125.323 333.65C119.608 332.854 114.41 329.936 110.777 325.485C107.145 321.035 105.349 315.383 105.75 309.67C106.152 303.957 108.723 298.607 112.943 294.701C117.163 290.794 122.72 288.622 128.491 288.62C130.555 288.539 132.62 288.767 134.616 289.296C177.99 300.576 210.977 306.272 210.977 306.272Z" fill="url(#paint12_linear_1926_3017)"/>
    </g>
    <defs>
        <filter id="filter0_d_1926_3017" x="-2.82993" y="0.0999985" width="452.73" height="466.82" filterUnits="userSpaceOnUse" color-interpolation-filters="sRGB">
            <feFlood flood-opacity="0" result="BackgroundImageFix"/>
            <feColorMatrix in="SourceAlpha" type="matrix" values="0 0 0 0 0 0 0 0 0 0 0 0 0 0 0 0 0 0 127 0" result="hardAlpha"/>
            <feOffset dy="41"/>
            <feGaussianBlur stdDeviation="36.95"/>
            <feComposite in2="hardAlpha" operator="out"/>
            <feColorMatrix type="matrix" values="0 0 0 0 0.290419 0 0 0 0 0.108659 0 0 0 0 0.0512616 0 0 0 0.15 0"/>
            <feBlend mode="normal" in2="BackgroundImageFix" result="effect1_dropShadow_1926_3017"/>
            <feBlend mode="normal" in="SourceGraphic" in2="effect1_dropShadow_1926_3017" result="shape"/>
        </filter>
        <filter id="filter1_i_1926_3017" x="93.811" y="82.5566" width="252" height="250.476" filterUnits="userSpaceOnUse" color-interpolation-filters="sRGB">
            <feFlood flood-opacity="0" result="BackgroundImageFix"/>
            <feBlend mode="normal" in="SourceGraphic" in2="BackgroundImageFix" result="shape"/>
            <feColorMatrix in="SourceAlpha" type="matrix" values="0 0 0 0 0 0 0 0 0 0 0 0 0 0 0 0 0 0 127 0" result="hardAlpha"/>
            <feOffset dx="1" dy="1"/>
            <feComposite in2="hardAlpha" operator="arithmetic" k2="-1" k3="1"/>
            <feColorMatrix type="matrix" values="0 0 0 0 1 0 0 0 0 0.970854 0 0 0 0 0.81784 0 0 0 0.4 0"/>
            <feBlend mode="normal" in2="shape" result="effect1_innerShadow_1926_3017"/>
        </filter>
        <filter id="filter2_d_1926_3017" x="129.359" y="117.97" width="182.458" height="181.064" filterUnits="userSpaceOnUse" color-interpolation-filters="sRGB">
            <feFlood flood-opacity="0" result="BackgroundImageFix"/>
            <feColorMatrix in="SourceAlpha" type="matrix" values="0 0 0 0 0 0 0 0 0 0 0 0 0 0 0 0 0 0 127 0" result="hardAlpha"/>
            <feOffset dx="1" dy="1"/>
            <feComposite in2="hardAlpha" operator="out"/>
            <feColorMatrix type="matrix" values="0 0 0 0 1 0 0 0 0 0.988111 0 0 0 0 0.702786 0 0 0 0.4 0"/>
            <feBlend mode="normal" in2="BackgroundImageFix" result="effect1_dropShadow_1926_3017"/>
            <feBlend mode="normal" in="SourceGraphic" in2="effect1_dropShadow_1926_3017" result="shape"/>
        </filter>
        <filter id="filter3_i_1926_3017" x="129.359" y="117.985" width="178.059" height="180.033" filterUnits="userSpaceOnUse" color-interpolation-filters="sRGB">
            <feFlood flood-opacity="0" result="BackgroundImageFix"/>
            <feBlend mode="normal" in="SourceGraphic" in2="BackgroundImageFix" result="shape"/>
            <feColorMatrix in="SourceAlpha" type="matrix" values="0 0 0 0 0 0 0 0 0 0 0 0 0 0 0 0 0 0 127 0" result="hardAlpha"/>
            <feOffset dx="1" dy="1"/>
            <feComposite in2="hardAlpha" operator="arithmetic" k2="-1" k3="1"/>
            <feColorMatrix type="matrix" values="0 0 0 0 1 0 0 0 0 0.970854 0 0 0 0 0.81784 0 0 0 0.4 0"/>
            <feBlend mode="normal" in2="shape" result="effect1_innerShadow_1926_3017"/>
        </filter>
        <linearGradient id="paint0_linear_1926_3017" x1="212.265" y1="333.023" x2="212.265" y2="82.5566" gradientUnits="userSpaceOnUse">
            <stop stop-color="#FFB052"/>
            <stop offset="1" stop-color="#EE9A1B"/>
        </linearGradient>
        <radialGradient id="paint1_angular_1926_3017" cx="0" cy="0" r="1" gradientUnits="userSpaceOnUse" gradientTransform="translate(219.809 207.79) rotate(-90) scale(125.233 126.202)">
            <stop offset="0.299565" stop-color="#FFDE7B"/>
            <stop offset="0.33965" stop-color="#FFF2C9"/>
            <stop offset="0.401811" stop-color="#FFDB6E"/>
            <stop offset="0.755761" stop-color="#FFCE3A"/>
            <stop offset="0.782561" stop-color="#FFEBB0"/>
            <stop offset="0.802798" stop-color="#FFD24C"/>
            <stop offset="0.92394" stop-color="#FFDE7B"/>
        </radialGradient>
        <linearGradient id="paint2_linear_1926_3017" x1="219.94" y1="298.025" x2="219.94" y2="117.988" gradientUnits="userSpaceOnUse">
            <stop stop-color="#E1931E"/>
            <stop offset="1" stop-color="#EBAF0B"/>
        </linearGradient>
        <radialGradient id="paint3_angular_1926_3017" cx="0" cy="0" r="1" gradientUnits="userSpaceOnUse" gradientTransform="translate(218.387 207.998) rotate(-90) scale(90.0133 89.1723)">
            <stop offset="0.274914" stop-color="#F9B735"/>
            <stop offset="0.34656" stop-color="#FFF490"/>
            <stop offset="0.401811" stop-color="#FFD952"/>
            <stop offset="0.650783" stop-color="#F9B735"/>
            <stop offset="0.72523" stop-color="#FFEB81"/>
            <stop offset="0.767778" stop-color="#F9B735"/>
            <stop offset="0.92394" stop-color="#FFDD64"/>
        </radialGradient>
        <linearGradient id="paint4_linear_1926_3017" x1="220.013" y1="267.114" x2="220.013" y2="148.557" gradientUnits="userSpaceOnUse">
            <stop stop-color="#FFF4B7"/>
            <stop offset="1" stop-color="#FFDD3D"/>
        </linearGradient>
        <linearGradient id="paint5_linear_1926_3017" x1="248.05" y1="34.9096" x2="245.39" y2="111.656" gradientUnits="userSpaceOnUse">
            <stop stop-color="#E3452D"/>
            <stop offset="1" stop-color="#FAAF5E"/>
        </linearGradient>
        <linearGradient id="paint6_linear_1926_3017" x1="345.417" y1="125.984" x2="343.226" y2="189.212" gradientUnits="userSpaceOnUse">
            <stop stop-color="#E3452D"/>
            <stop offset="1" stop-color="#FAAF5E"/>
        </linearGradient>
        <linearGradient id="paint7_linear_1926_3017" x1="349.327" y1="190.385" x2="280.987" y2="159.723" gradientUnits="userSpaceOnUse">
            <stop stop-color="#E3D6D3"/>
            <stop offset="1" stop-color="white"/>
        </linearGradient>
        <linearGradient id="paint8_linear_1926_3017" x1="130.899" y1="61.4641" x2="128.195" y2="139.487" gradientUnits="userSpaceOnUse">
            <stop stop-color="#E3452D"/>
            <stop offset="1" stop-color="#FAAF5E"/>
        </linearGradient>
        <linearGradient id="paint9_linear_1926_3017" x1="166.113" y1="139.118" x2="119.15" y2="118.046" gradientUnits="userSpaceOnUse">
            <stop stop-color="#E3D6D3"/>
            <stop offset="1" stop-color="white"/>
        </linearGradient>
        <linearGradient id="paint10_linear_1926_3017" x1="272.454" y1="112.37" x2="233.419" y2="94.8554" gradientUnits="userSpaceOnUse">
            <stop stop-color="#E3D6D3"/>
            <stop offset="1" stop-color="white"/>
        </linearGradient>
        <linearGradient id="paint11_linear_1926_3017" x1="125.711" y1="267.659" x2="122.787" y2="352.034" gradientUnits="userSpaceOnUse">
            <stop stop-color="#E3452D"/>
            <stop offset="1" stop-color="#FAAF5E"/>
        </linearGradient>
        <linearGradient id="paint12_linear_1926_3017" x1="106.247" y1="288.611" x2="210.162" y2="335.235" gradientUnits="userSpaceOnUse">
            <stop stop-color="#E3D6D3"/>
            <stop offset="1" stop-color="white"/>
        </linearGradient>
    </defs>
</svg>
