<svg width="340" height="340" viewBox="0 0 340 340" fill="none" xmlns="http://www.w3.org/2000/svg">
    <path d="M73.062 326.588C100.119 326.588 122.054 304.822 122.054 277.973C122.054 251.123 100.119 229.357 73.062 229.357C46.0045 229.357 24.0701 251.123 24.0701 277.973C24.0701 304.822 46.0045 326.588 73.062 326.588Z" fill="#DB3F27"/>
    <path fill-rule="evenodd" clip-rule="evenodd" d="M72.7612 40.8398C95.66 40.8398 114.226 69.633 114.226 105.148C114.226 140.664 95.6628 169.457 72.7612 169.457C49.8595 169.457 31.2963 140.664 31.2963 105.148C31.2963 69.633 49.8623 40.8398 72.7612 40.8398Z" fill="#DB3F27"/>
    <path fill-rule="evenodd" clip-rule="evenodd" d="M207.863 11.4452C233.563 20.9967 231.395 44.2699 218.835 77.5292C206.274 110.788 188.077 141.44 162.376 131.889C136.675 122.337 126.024 87.6539 138.585 54.3947C151.145 21.1354 182.163 1.90295 207.863 11.4452Z" fill="#DB3F27"/>
    <path fill-rule="evenodd" clip-rule="evenodd" d="M320.795 110.475C334.585 130.346 321.089 146.166 294.934 164.003C268.78 181.839 239.865 194.95 226.083 175.08C212.301 155.209 222.323 124.632 248.478 106.795C274.633 88.959 307.009 90.6048 320.795 110.475Z" fill="#DB3F27"/>
    <path fill-rule="evenodd" clip-rule="evenodd" d="M165.267 58.5566C234.855 58.5566 291.267 114.627 291.267 183.79C291.267 252.953 234.858 309.032 165.267 309.032C95.6757 309.032 39.2667 252.962 39.2667 183.79C39.2667 114.618 95.6785 58.5566 165.267 58.5566Z" fill="url(#paint0_linear_1926_3017)"/>
    <g filter="url(#filter0_i_1926_3017)">
        <path fill-rule="evenodd" clip-rule="evenodd" d="M172.811 58.5566C242.399 58.5566 298.811 114.627 298.811 183.79C298.811 252.953 242.402 309.032 172.811 309.032C103.22 309.032 46.811 252.962 46.811 183.79C46.811 114.618 103.223 58.5566 172.811 58.5566Z" fill="url(#paint1_angular_1926_3017)"/>
    </g>
    <g filter="url(#filter1_d_1926_3017)">
        <path fill-rule="evenodd" clip-rule="evenodd" d="M172.937 93.9699C190.888 93.9402 208.444 99.1952 223.384 109.07C238.324 118.945 249.977 132.996 256.867 149.444C263.757 165.893 265.576 184 262.092 201.474C258.608 218.949 249.979 235.005 237.296 247.611C224.614 260.217 208.448 268.807 190.844 272.293C173.24 275.779 154.99 274.005 138.402 267.195C121.815 260.385 107.636 248.846 97.6601 234.037C87.684 219.228 82.3591 201.815 82.359 184.002C82.34 160.144 91.8721 137.256 108.859 120.372C125.845 103.488 148.894 93.9907 172.937 93.9699Z" fill="url(#paint2_linear_1926_3017)"/>
    </g>
    <g filter="url(#filter2_i_1926_3017)">
        <path fill-rule="evenodd" clip-rule="evenodd" d="M171.355 93.9849C188.672 94.3004 205.55 99.5287 219.985 109.07C234.926 118.945 246.578 132.996 253.468 149.444C260.358 165.893 262.177 184 258.693 201.474C255.209 218.949 246.58 235.005 233.897 247.611C221.215 260.217 205.049 268.807 187.445 272.293C182.131 273.345 176.758 273.918 171.389 274.018C160.117 273.809 148.925 271.515 138.402 267.195C121.815 260.385 107.636 248.846 97.6601 234.037C87.684 219.228 82.3591 201.815 82.359 184.002C82.34 160.144 91.8721 137.256 108.859 120.372C125.472 103.858 147.885 94.4112 171.355 93.9849Z" fill="url(#paint3_angular_1926_3017)"/>
    </g>
    <path fill-rule="evenodd" clip-rule="evenodd" d="M232.619 183.836C232.619 183.836 207.609 182.523 189.29 200.747C171.787 218.158 173.009 243.105 173.009 243.105C173.009 243.105 175.022 218.796 156.62 200.488C141.871 185.824 113.398 183.836 113.398 183.836C113.398 183.836 137.267 187.396 156.753 168.015C175.352 149.513 173.009 124.557 173.009 124.557C173.009 124.557 172.48 151.168 189.194 167.793C207.204 185.713 232.619 183.836 232.619 183.836Z" fill="url(#paint4_linear_1926_3017)"/>
    <path fill-rule="evenodd" clip-rule="evenodd" d="M219.036 16.0413C225.659 19.8374 230.999 25.4969 234.381 32.3042C237.763 39.1116 239.035 46.7611 238.036 54.2857C237.037 61.8103 233.812 68.8722 228.769 74.5783C223.727 80.2845 217.092 84.3789 209.704 86.3437C202.317 88.3085 194.508 88.0557 187.265 85.617C180.022 83.1784 173.671 78.6634 169.014 72.6431C164.356 66.6227 161.603 59.3673 161.1 51.7941C160.598 44.2209 162.37 36.6699 166.192 30.0959C168.729 25.7274 172.11 21.898 176.14 18.827C180.169 15.7559 184.77 13.5033 189.678 12.1979C194.586 10.8926 199.705 10.5602 204.742 11.2197C209.78 11.8792 214.637 13.5176 219.036 16.0413Z" fill="url(#paint5_linear_1926_3017)"/>
    <path d="M297.305 165.049C314.81 165.049 329 150.968 329 133.598C329 116.227 314.81 102.146 297.305 102.146C279.8 102.146 265.61 116.227 265.61 133.598C265.61 150.968 279.8 165.049 297.305 165.049Z" fill="url(#paint6_linear_1926_3017)"/>
    <path fill-rule="evenodd" clip-rule="evenodd" d="M297.418 154.255C292.817 160.098 279.148 168.106 263.156 173.145C243.025 179.497 233.814 175.891 233.814 175.891C233.814 175.891 250.931 157.879 271.725 131.943C272.64 130.708 273.777 129.651 275.079 128.827C282.807 123.547 293.267 124.805 298.917 132.276C301.368 135.508 302.564 139.507 302.289 143.542C302.014 147.577 300.285 151.38 297.418 154.255Z" fill="url(#paint7_linear_1926_3017)"/>
    <path fill-rule="evenodd" clip-rule="evenodd" d="M62.5531 42.8547C69.2532 38.9229 76.9783 37.0522 84.7505 37.4791C92.5226 37.9061 99.9923 40.6116 106.214 45.2532C112.436 49.8949 117.13 56.264 119.703 63.5542C122.275 70.8445 122.61 78.7282 120.665 86.2074C118.72 93.6867 114.583 100.425 108.776 105.57C102.97 110.715 95.7565 114.035 88.0482 115.109C80.3398 116.184 72.4835 114.965 65.4737 111.606C58.4638 108.248 52.6156 102.901 48.6694 96.2434C43.4007 87.3307 41.9036 76.7103 44.5054 66.7051C47.1073 56.7 53.5963 48.1246 62.5531 42.8547Z" fill="url(#paint8_linear_1926_3017)"/>
    <path fill-rule="evenodd" clip-rule="evenodd" d="M113.201 147.671C113.201 147.671 98.3596 123.427 75.8083 92.7381C74.697 91.3701 73.8661 89.7995 73.3624 88.1149C71.5816 83.5735 71.5956 78.5321 73.4015 74.0005C75.2075 69.4689 78.672 65.7816 83.1013 63.6771C87.5306 61.5727 92.5975 61.2065 97.2874 62.6518C101.977 64.0971 105.944 67.2473 108.392 71.4714C113.498 78.2953 118.263 95.6969 119.032 114.735C120.001 138.702 113.201 147.671 113.201 147.671Z" fill="url(#paint9_linear_1926_3017)"/>
    <path fill-rule="evenodd" clip-rule="evenodd" d="M225.425 56.6593C225.917 65.2123 220.511 82.2626 210.915 98.5732C198.73 119.294 188.132 123.224 188.132 123.224C188.132 123.224 188.772 94.8746 186.414 56.9737C186.209 55.2295 186.361 53.4623 186.858 51.7772C189.49 41.4398 199.187 34.5141 209.746 36.5761C214.364 37.4784 218.496 40.0097 221.379 43.7018C224.261 47.3938 225.698 51.9968 225.425 56.6593Z" fill="url(#paint10_linear_1926_3017)"/>
    <path fill-rule="evenodd" clip-rule="evenodd" d="M52.2234 319.951C59.0228 324.859 67.1364 327.655 75.5378 327.987C83.9391 328.318 92.2508 326.17 99.4215 321.813C106.592 317.457 112.3 311.087 115.822 303.512C119.345 295.936 120.524 287.493 119.21 279.252C117.897 271.011 114.15 263.342 108.444 257.214C102.737 251.087 95.3277 246.776 87.1522 244.828C78.9766 242.879 70.4025 243.381 62.5142 246.269C54.6259 249.157 47.778 254.301 42.8365 261.051C36.2245 270.102 33.4996 281.385 35.2593 292.427C37.019 303.468 43.1196 313.367 52.2234 319.951Z" fill="url(#paint11_linear_1926_3017)"/>
    <path fill-rule="evenodd" clip-rule="evenodd" d="M163.977 282.272C163.977 282.272 157.018 293.451 130.254 302.632C109.125 309.882 88.0872 312.175 78.3229 309.65C72.6077 308.854 67.4096 305.936 63.7773 301.485C60.1449 297.035 58.3485 291.383 58.7505 285.67C59.1524 279.957 61.7228 274.607 65.9431 270.701C70.1634 266.794 75.7196 264.622 81.491 264.62C83.5551 264.539 85.6198 264.767 87.6157 265.296C130.99 276.576 163.977 282.272 163.977 282.272Z" fill="url(#paint12_linear_1926_3017)"/>
    <defs>
        <filter id="filter0_i_1926_3017" x="46.811" y="58.5566" width="252" height="250.476" filterUnits="userSpaceOnUse" color-interpolation-filters="sRGB">
            <feFlood flood-opacity="0" result="BackgroundImageFix"/>
            <feBlend mode="normal" in="SourceGraphic" in2="BackgroundImageFix" result="shape"/>
            <feColorMatrix in="SourceAlpha" type="matrix" values="0 0 0 0 0 0 0 0 0 0 0 0 0 0 0 0 0 0 127 0" result="hardAlpha"/>
            <feOffset dx="1" dy="1"/>
            <feComposite in2="hardAlpha" operator="arithmetic" k2="-1" k3="1"/>
            <feColorMatrix type="matrix" values="0 0 0 0 1 0 0 0 0 0.970854 0 0 0 0 0.81784 0 0 0 0.4 0"/>
            <feBlend mode="normal" in2="shape" result="effect1_innerShadow_1926_3017"/>
        </filter>
        <filter id="filter1_d_1926_3017" x="82.359" y="93.9697" width="182.458" height="181.064" filterUnits="userSpaceOnUse" color-interpolation-filters="sRGB">
            <feFlood flood-opacity="0" result="BackgroundImageFix"/>
            <feColorMatrix in="SourceAlpha" type="matrix" values="0 0 0 0 0 0 0 0 0 0 0 0 0 0 0 0 0 0 127 0" result="hardAlpha"/>
            <feOffset dx="1" dy="1"/>
            <feComposite in2="hardAlpha" operator="out"/>
            <feColorMatrix type="matrix" values="0 0 0 0 1 0 0 0 0 0.988111 0 0 0 0 0.702786 0 0 0 0.4 0"/>
            <feBlend mode="normal" in2="BackgroundImageFix" result="effect1_dropShadow_1926_3017"/>
            <feBlend mode="normal" in="SourceGraphic" in2="effect1_dropShadow_1926_3017" result="shape"/>
        </filter>
        <filter id="filter2_i_1926_3017" x="82.359" y="93.9849" width="178.059" height="180.033" filterUnits="userSpaceOnUse" color-interpolation-filters="sRGB">
            <feFlood flood-opacity="0" result="BackgroundImageFix"/>
            <feBlend mode="normal" in="SourceGraphic" in2="BackgroundImageFix" result="shape"/>
            <feColorMatrix in="SourceAlpha" type="matrix" values="0 0 0 0 0 0 0 0 0 0 0 0 0 0 0 0 0 0 127 0" result="hardAlpha"/>
            <feOffset dx="1" dy="1"/>
            <feComposite in2="hardAlpha" operator="arithmetic" k2="-1" k3="1"/>
            <feColorMatrix type="matrix" values="0 0 0 0 1 0 0 0 0 0.970854 0 0 0 0 0.81784 0 0 0 0.4 0"/>
            <feBlend mode="normal" in2="shape" result="effect1_innerShadow_1926_3017"/>
        </filter>
        <linearGradient id="paint0_linear_1926_3017" x1="165.265" y1="309.023" x2="165.265" y2="58.5566" gradientUnits="userSpaceOnUse">
            <stop stop-color="#FFB052"/>
            <stop offset="1" stop-color="#EE9A1B"/>
        </linearGradient>
        <radialGradient id="paint1_angular_1926_3017" cx="0" cy="0" r="1" gradientUnits="userSpaceOnUse" gradientTransform="translate(172.809 183.79) rotate(-90) scale(125.233 126.202)">
            <stop offset="0.299565" stop-color="#FFDE7B"/>
            <stop offset="0.33965" stop-color="#FFF2C9"/>
            <stop offset="0.401811" stop-color="#FFDB6E"/>
            <stop offset="0.755761" stop-color="#FFCE3A"/>
            <stop offset="0.782561" stop-color="#FFEBB0"/>
            <stop offset="0.802798" stop-color="#FFD24C"/>
            <stop offset="0.92394" stop-color="#FFDE7B"/>
        </radialGradient>
        <linearGradient id="paint2_linear_1926_3017" x1="172.94" y1="274.025" x2="172.94" y2="93.9883" gradientUnits="userSpaceOnUse">
            <stop stop-color="#E1931E"/>
            <stop offset="1" stop-color="#EBAF0B"/>
        </linearGradient>
        <radialGradient id="paint3_angular_1926_3017" cx="0" cy="0" r="1" gradientUnits="userSpaceOnUse" gradientTransform="translate(171.387 183.998) rotate(-90) scale(90.0133 89.1723)">
            <stop offset="0.274914" stop-color="#F9B735"/>
            <stop offset="0.34656" stop-color="#FFF490"/>
            <stop offset="0.401811" stop-color="#FFD952"/>
            <stop offset="0.650783" stop-color="#F9B735"/>
            <stop offset="0.72523" stop-color="#FFEB81"/>
            <stop offset="0.767778" stop-color="#F9B735"/>
            <stop offset="0.92394" stop-color="#FFDD64"/>
        </radialGradient>
        <linearGradient id="paint4_linear_1926_3017" x1="173.013" y1="243.114" x2="173.013" y2="124.557" gradientUnits="userSpaceOnUse">
            <stop stop-color="#FFF4B7"/>
            <stop offset="1" stop-color="#FFDD3D"/>
        </linearGradient>
        <linearGradient id="paint5_linear_1926_3017" x1="201.05" y1="10.9096" x2="198.39" y2="87.6561" gradientUnits="userSpaceOnUse">
            <stop stop-color="#E3452D"/>
            <stop offset="1" stop-color="#FAAF5E"/>
        </linearGradient>
        <linearGradient id="paint6_linear_1926_3017" x1="298.417" y1="101.984" x2="296.226" y2="165.212" gradientUnits="userSpaceOnUse">
            <stop stop-color="#E3452D"/>
            <stop offset="1" stop-color="#FAAF5E"/>
        </linearGradient>
        <linearGradient id="paint7_linear_1926_3017" x1="302.327" y1="166.385" x2="233.987" y2="135.723" gradientUnits="userSpaceOnUse">
            <stop stop-color="#E3D6D3"/>
            <stop offset="1" stop-color="white"/>
        </linearGradient>
        <linearGradient id="paint8_linear_1926_3017" x1="83.8986" y1="37.4641" x2="81.1946" y2="115.487" gradientUnits="userSpaceOnUse">
            <stop stop-color="#E3452D"/>
            <stop offset="1" stop-color="#FAAF5E"/>
        </linearGradient>
        <linearGradient id="paint9_linear_1926_3017" x1="119.113" y1="115.118" x2="72.1497" y2="94.0464" gradientUnits="userSpaceOnUse">
            <stop stop-color="#E3D6D3"/>
            <stop offset="1" stop-color="white"/>
        </linearGradient>
        <linearGradient id="paint10_linear_1926_3017" x1="225.454" y1="88.3698" x2="186.419" y2="70.8554" gradientUnits="userSpaceOnUse">
            <stop stop-color="#E3D6D3"/>
            <stop offset="1" stop-color="white"/>
        </linearGradient>
        <linearGradient id="paint11_linear_1926_3017" x1="78.7106" y1="243.659" x2="75.7872" y2="328.034" gradientUnits="userSpaceOnUse">
            <stop stop-color="#E3452D"/>
            <stop offset="1" stop-color="#FAAF5E"/>
        </linearGradient>
        <linearGradient id="paint12_linear_1926_3017" x1="59.2472" y1="264.611" x2="163.162" y2="311.235" gradientUnits="userSpaceOnUse">
            <stop stop-color="#E3D6D3"/>
            <stop offset="1" stop-color="white"/>
        </linearGradient>
    </defs>
</svg>