<svg width="428" height="467" viewBox="0 0 428 467" fill="none" xmlns="http://www.w3.org/2000/svg">
    <g filter="url(#filter0_d_1926_3017)">
        <path d="M117.062 350.588C144.119 350.588 166.054 328.822 166.054 301.973C166.054 275.123 144.119 253.357 117.062 253.357C90.0045 253.357 68.0701 275.123 68.0701 301.973C68.0701 328.822 90.0045 350.588 117.062 350.588Z" fill="#DB3F27"/>
        <path fill-rule="evenodd" clip-rule="evenodd" d="M116.761 64.8398C139.66 64.8398 158.226 93.633 158.226 129.148C158.226 164.664 139.663 193.457 116.761 193.457C93.8595 193.457 75.2963 164.664 75.2963 129.148C75.2963 93.633 93.8623 64.8398 116.761 64.8398Z" fill="#DB3F27"/>
        <path fill-rule="evenodd" clip-rule="evenodd" d="M251.863 35.4452C277.563 44.9967 275.395 68.2699 262.835 101.529C250.274 134.788 232.077 165.44 206.376 155.889C180.675 146.337 170.024 111.654 182.585 78.3947C195.145 45.1354 226.163 25.903 251.863 35.4452Z" fill="#DB3F27"/>
        <path fill-rule="evenodd" clip-rule="evenodd" d="M364.795 134.475C378.585 154.346 365.089 170.166 338.934 188.003C312.78 205.839 283.865 218.95 270.083 199.08C256.301 179.209 266.323 148.632 292.478 130.795C318.633 112.959 351.009 114.605 364.795 134.475Z" fill="#DB3F27"/>
        <path fill-rule="evenodd" clip-rule="evenodd" d="M209.267 82.5566C278.855 82.5566 335.267 138.627 335.267 207.79C335.267 276.953 278.858 333.032 209.267 333.032C139.676 333.032 83.2667 276.962 83.2667 207.79C83.2667 138.618 139.679 82.5566 209.267 82.5566Z" fill="url(#paint0_linear_1926_3017)"/>
        <g filter="url(#filter1_i_1926_3017)">
            <path fill-rule="evenodd" clip-rule="evenodd" d="M216.811 82.5566C286.399 82.5566 342.811 138.627 342.811 207.79C342.811 276.953 286.402 333.032 216.811 333.032C147.22 333.032 90.811 276.962 90.811 207.79C90.811 138.618 147.223 82.5566 216.811 82.5566Z" fill="url(#paint1_angular_1926_3017)"/>
        </g>
        <g filter="url(#filter2_d_1926_3017)">
            <path fill-rule="evenodd" clip-rule="evenodd" d="M216.937 117.97C234.888 117.94 252.444 123.195 267.384 133.07C282.324 142.945 293.977 156.996 300.867 173.444C307.757 189.893 309.576 208 306.092 225.474C302.608 242.949 293.979 259.005 281.296 271.611C268.614 284.217 252.448 292.807 234.844 296.293C217.24 299.779 198.99 298.005 182.402 291.195C165.815 284.385 151.636 272.846 141.66 258.037C131.684 243.228 126.359 225.815 126.359 208.002C126.34 184.144 135.872 161.256 152.859 144.372C169.845 127.488 192.894 117.991 216.937 117.97Z" fill="url(#paint2_linear_1926_3017)"/>
        </g>
        <g filter="url(#filter3_i_1926_3017)">
            <path fill-rule="evenodd" clip-rule="evenodd" d="M215.355 117.985C232.672 118.3 249.55 123.529 263.985 133.07C278.926 142.945 290.578 156.996 297.468 173.444C304.358 189.893 306.177 208 302.693 225.474C299.209 242.949 290.58 259.005 277.897 271.611C265.215 284.217 249.049 292.807 231.445 296.293C226.131 297.345 220.758 297.918 215.389 298.018C204.117 297.809 192.925 295.515 182.402 291.195C165.815 284.385 151.636 272.846 141.66 258.037C131.684 243.228 126.359 225.815 126.359 208.002C126.34 184.144 135.872 161.256 152.859 144.372C169.472 127.858 191.885 118.411 215.355 117.985Z" fill="url(#paint3_angular_1926_3017)"/>
        </g>
        <path fill-rule="evenodd" clip-rule="evenodd" d="M276.619 207.836C276.619 207.836 251.609 206.523 233.29 224.747C215.787 242.158 217.009 267.105 217.009 267.105C217.009 267.105 219.022 242.796 200.62 224.488C185.871 209.824 157.398 207.836 157.398 207.836C157.398 207.836 181.267 211.396 200.753 192.015C219.352 173.513 217.009 148.557 217.009 148.557C217.009 148.557 216.48 175.168 233.194 191.793C251.204 209.713 276.619 207.836 276.619 207.836Z" fill="url(#paint4_linear_1926_3017)"/>
        <path fill-rule="evenodd" clip-rule="evenodd" d="M263.036 40.0413C269.659 43.8374 274.999 49.4969 278.381 56.3042C281.763 63.1116 283.035 70.7611 282.036 78.2857C281.037 85.8103 277.812 92.8722 272.769 98.5783C267.727 104.285 261.092 108.379 253.704 110.344C246.317 112.309 238.508 112.056 231.265 109.617C224.022 107.178 217.671 102.663 213.014 96.6431C208.356 90.6227 205.603 83.3673 205.1 75.7941C204.598 68.2209 206.37 60.6699 210.192 54.0959C212.729 49.7274 216.11 45.898 220.14 42.827C224.169 39.7559 228.77 37.5033 233.678 36.1979C238.586 34.8926 243.705 34.5602 248.742 35.2197C253.78 35.8792 258.637 37.5176 263.036 40.0413Z" fill="url(#paint5_linear_1926_3017)"/>
        <path d="M341.305 189.049C358.81 189.049 373 174.968 373 157.598C373 140.227 358.81 126.146 341.305 126.146C323.8 126.146 309.61 140.227 309.61 157.598C309.61 174.968 323.8 189.049 341.305 189.049Z" fill="url(#paint6_linear_1926_3017)"/>
        <path fill-rule="evenodd" clip-rule="evenodd" d="M341.418 178.255C336.817 184.098 323.148 192.106 307.156 197.145C287.025 203.497 277.814 199.891 277.814 199.891C277.814 199.891 294.931 181.879 315.725 155.943C316.64 154.708 317.777 153.651 319.079 152.827C326.807 147.547 337.267 148.805 342.917 156.276C345.368 159.508 346.564 163.507 346.289 167.542C346.014 171.577 344.285 175.38 341.418 178.255Z" fill="url(#paint7_linear_1926_3017)"/>
        <path fill-rule="evenodd" clip-rule="evenodd" d="M106.553 66.8547C113.253 62.9229 120.978 61.0522 128.75 61.4791C136.523 61.9061 143.992 64.6116 150.214 69.2532C156.436 73.8949 161.13 80.264 163.703 87.5542C166.275 94.8445 166.61 102.728 164.665 110.207C162.72 117.687 158.583 124.425 152.776 129.57C146.97 134.715 139.757 138.035 132.048 139.109C124.34 140.184 116.484 138.965 109.474 135.606C102.464 132.248 96.6156 126.901 92.6694 120.243C87.4007 111.331 85.9036 100.71 88.5054 90.7051C91.1073 80.7 97.5963 72.1246 106.553 66.8547Z" fill="url(#paint8_linear_1926_3017)"/>
        <path fill-rule="evenodd" clip-rule="evenodd" d="M157.201 171.671C157.201 171.671 142.36 147.427 119.808 116.738C118.697 115.37 117.866 113.8 117.362 112.115C115.582 107.574 115.596 102.532 117.402 98.0005C119.207 93.4689 122.672 89.7816 127.101 87.6771C131.531 85.5727 136.598 85.2065 141.287 86.6518C145.977 88.0971 149.944 91.2473 152.392 95.4714C157.498 102.295 162.263 119.697 163.032 138.735C164.001 162.702 157.201 171.671 157.201 171.671Z" fill="url(#paint9_linear_1926_3017)"/>
        <path fill-rule="evenodd" clip-rule="evenodd" d="M269.425 80.6593C269.917 89.2123 264.511 106.263 254.915 122.573C242.73 143.294 232.132 147.224 232.132 147.224C232.132 147.224 232.772 118.875 230.414 80.9737C230.209 79.2295 230.361 77.4623 230.858 75.7772C233.49 65.4398 243.187 58.5141 253.746 60.5761C258.364 61.4784 262.496 64.0097 265.379 67.7018C268.261 71.3938 269.698 75.9968 269.425 80.6593Z" fill="url(#paint10_linear_1926_3017)"/>
        <path fill-rule="evenodd" clip-rule="evenodd" d="M96.2234 343.951C103.023 348.859 111.136 351.655 119.538 351.987C127.939 352.318 136.251 350.17 143.421 345.813C150.592 341.457 156.3 335.087 159.822 327.512C163.345 319.936 164.524 311.493 163.21 303.252C161.897 295.011 158.15 287.342 152.444 281.214C146.737 275.087 139.328 270.776 131.152 268.828C122.977 266.879 114.402 267.381 106.514 270.269C98.6259 273.157 91.778 278.301 86.8365 285.051C80.2245 294.102 77.4996 305.385 79.2593 316.427C81.019 327.468 87.1196 337.367 96.2234 343.951Z" fill="url(#paint11_linear_1926_3017)"/>
        <path fill-rule="evenodd" clip-rule="evenodd" d="M207.977 306.272C207.977 306.272 201.018 317.451 174.254 326.632C153.125 333.882 132.087 336.175 122.323 333.65C116.608 332.854 111.41 329.936 107.777 325.485C104.145 321.035 102.349 315.383 102.75 309.67C103.152 303.957 105.723 298.607 109.943 294.701C114.163 290.794 119.72 288.622 125.491 288.62C127.555 288.539 129.62 288.767 131.616 289.296C174.99 300.576 207.977 306.272 207.977 306.272Z" fill="url(#paint12_linear_1926_3017)"/>
    </g>
    <defs>
        <filter id="filter0_d_1926_3017" x="-5.82993" y="0.0999985" width="452.73" height="466.82" filterUnits="userSpaceOnUse" color-interpolation-filters="sRGB">
            <feFlood flood-opacity="0" result="BackgroundImageFix"/>
            <feColorMatrix in="SourceAlpha" type="matrix" values="0 0 0 0 0 0 0 0 0 0 0 0 0 0 0 0 0 0 127 0" result="hardAlpha"/>
            <feOffset dy="41"/>
            <feGaussianBlur stdDeviation="36.95"/>
            <feComposite in2="hardAlpha" operator="out"/>
            <feColorMatrix type="matrix" values="0 0 0 0 0.290419 0 0 0 0 0.108659 0 0 0 0 0.0512616 0 0 0 0.15 0"/>
            <feBlend mode="normal" in2="BackgroundImageFix" result="effect1_dropShadow_1926_3017"/>
            <feBlend mode="normal" in="SourceGraphic" in2="effect1_dropShadow_1926_3017" result="shape"/>
        </filter>
        <filter id="filter1_i_1926_3017" x="90.811" y="82.5566" width="252" height="250.476" filterUnits="userSpaceOnUse" color-interpolation-filters="sRGB">
            <feFlood flood-opacity="0" result="BackgroundImageFix"/>
            <feBlend mode="normal" in="SourceGraphic" in2="BackgroundImageFix" result="shape"/>
            <feColorMatrix in="SourceAlpha" type="matrix" values="0 0 0 0 0 0 0 0 0 0 0 0 0 0 0 0 0 0 127 0" result="hardAlpha"/>
            <feOffset dx="1" dy="1"/>
            <feComposite in2="hardAlpha" operator="arithmetic" k2="-1" k3="1"/>
            <feColorMatrix type="matrix" values="0 0 0 0 1 0 0 0 0 0.970854 0 0 0 0 0.81784 0 0 0 0.4 0"/>
            <feBlend mode="normal" in2="shape" result="effect1_innerShadow_1926_3017"/>
        </filter>
        <filter id="filter2_d_1926_3017" x="126.359" y="117.97" width="182.458" height="181.064" filterUnits="userSpaceOnUse" color-interpolation-filters="sRGB">
            <feFlood flood-opacity="0" result="BackgroundImageFix"/>
            <feColorMatrix in="SourceAlpha" type="matrix" values="0 0 0 0 0 0 0 0 0 0 0 0 0 0 0 0 0 0 127 0" result="hardAlpha"/>
            <feOffset dx="1" dy="1"/>
            <feComposite in2="hardAlpha" operator="out"/>
            <feColorMatrix type="matrix" values="0 0 0 0 1 0 0 0 0 0.988111 0 0 0 0 0.702786 0 0 0 0.4 0"/>
            <feBlend mode="normal" in2="BackgroundImageFix" result="effect1_dropShadow_1926_3017"/>
            <feBlend mode="normal" in="SourceGraphic" in2="effect1_dropShadow_1926_3017" result="shape"/>
        </filter>
        <filter id="filter3_i_1926_3017" x="126.359" y="117.985" width="178.059" height="180.033" filterUnits="userSpaceOnUse" color-interpolation-filters="sRGB">
            <feFlood flood-opacity="0" result="BackgroundImageFix"/>
            <feBlend mode="normal" in="SourceGraphic" in2="BackgroundImageFix" result="shape"/>
            <feColorMatrix in="SourceAlpha" type="matrix" values="0 0 0 0 0 0 0 0 0 0 0 0 0 0 0 0 0 0 127 0" result="hardAlpha"/>
            <feOffset dx="1" dy="1"/>
            <feComposite in2="hardAlpha" operator="arithmetic" k2="-1" k3="1"/>
            <feColorMatrix type="matrix" values="0 0 0 0 1 0 0 0 0 0.970854 0 0 0 0 0.81784 0 0 0 0.4 0"/>
            <feBlend mode="normal" in2="shape" result="effect1_innerShadow_1926_3017"/>
        </filter>
        <linearGradient id="paint0_linear_1926_3017" x1="209.265" y1="333.023" x2="209.265" y2="82.5566" gradientUnits="userSpaceOnUse">
            <stop stop-color="#FFB052"/>
            <stop offset="1" stop-color="#EE9A1B"/>
        </linearGradient>
        <radialGradient id="paint1_angular_1926_3017" cx="0" cy="0" r="1" gradientUnits="userSpaceOnUse" gradientTransform="translate(216.809 207.79) rotate(-90) scale(125.233 126.202)">
            <stop offset="0.299565" stop-color="#FFDE7B"/>
            <stop offset="0.33965" stop-color="#FFF2C9"/>
            <stop offset="0.401811" stop-color="#FFDB6E"/>
            <stop offset="0.755761" stop-color="#FFCE3A"/>
            <stop offset="0.782561" stop-color="#FFEBB0"/>
            <stop offset="0.802798" stop-color="#FFD24C"/>
            <stop offset="0.92394" stop-color="#FFDE7B"/>
        </radialGradient>
        <linearGradient id="paint2_linear_1926_3017" x1="216.94" y1="298.025" x2="216.94" y2="117.988" gradientUnits="userSpaceOnUse">
            <stop stop-color="#E1931E"/>
            <stop offset="1" stop-color="#EBAF0B"/>
        </linearGradient>
        <radialGradient id="paint3_angular_1926_3017" cx="0" cy="0" r="1" gradientUnits="userSpaceOnUse" gradientTransform="translate(215.387 207.998) rotate(-90) scale(90.0133 89.1723)">
            <stop offset="0.274914" stop-color="#F9B735"/>
            <stop offset="0.34656" stop-color="#FFF490"/>
            <stop offset="0.401811" stop-color="#FFD952"/>
            <stop offset="0.650783" stop-color="#F9B735"/>
            <stop offset="0.72523" stop-color="#FFEB81"/>
            <stop offset="0.767778" stop-color="#F9B735"/>
            <stop offset="0.92394" stop-color="#FFDD64"/>
        </radialGradient>
        <linearGradient id="paint4_linear_1926_3017" x1="217.013" y1="267.114" x2="217.013" y2="148.557" gradientUnits="userSpaceOnUse">
            <stop stop-color="#FFF4B7"/>
            <stop offset="1" stop-color="#FFDD3D"/>
        </linearGradient>
        <linearGradient id="paint5_linear_1926_3017" x1="245.05" y1="34.9096" x2="242.39" y2="111.656" gradientUnits="userSpaceOnUse">
            <stop stop-color="#E3452D"/>
            <stop offset="1" stop-color="#FAAF5E"/>
        </linearGradient>
        <linearGradient id="paint6_linear_1926_3017" x1="342.417" y1="125.984" x2="340.226" y2="189.212" gradientUnits="userSpaceOnUse">
            <stop stop-color="#E3452D"/>
            <stop offset="1" stop-color="#FAAF5E"/>
        </linearGradient>
        <linearGradient id="paint7_linear_1926_3017" x1="346.327" y1="190.385" x2="277.987" y2="159.723" gradientUnits="userSpaceOnUse">
            <stop stop-color="#E3D6D3"/>
            <stop offset="1" stop-color="white"/>
        </linearGradient>
        <linearGradient id="paint8_linear_1926_3017" x1="127.899" y1="61.4641" x2="125.195" y2="139.487" gradientUnits="userSpaceOnUse">
            <stop stop-color="#E3452D"/>
            <stop offset="1" stop-color="#FAAF5E"/>
        </linearGradient>
        <linearGradient id="paint9_linear_1926_3017" x1="163.113" y1="139.118" x2="116.15" y2="118.046" gradientUnits="userSpaceOnUse">
            <stop stop-color="#E3D6D3"/>
            <stop offset="1" stop-color="white"/>
        </linearGradient>
        <linearGradient id="paint10_linear_1926_3017" x1="269.454" y1="112.37" x2="230.419" y2="94.8554" gradientUnits="userSpaceOnUse">
            <stop stop-color="#E3D6D3"/>
            <stop offset="1" stop-color="white"/>
        </linearGradient>
        <linearGradient id="paint11_linear_1926_3017" x1="122.711" y1="267.659" x2="119.787" y2="352.034" gradientUnits="userSpaceOnUse">
            <stop stop-color="#E3452D"/>
            <stop offset="1" stop-color="#FAAF5E"/>
        </linearGradient>
        <linearGradient id="paint12_linear_1926_3017" x1="103.247" y1="288.611" x2="207.162" y2="335.235" gradientUnits="userSpaceOnUse">
            <stop stop-color="#E3D6D3"/>
            <stop offset="1" stop-color="white"/>
        </linearGradient>
    </defs>
</svg>