<svg width="160" height="160" viewBox="0 0 160 160" fill="none" xmlns="http://www.w3.org/2000/svg">
    <path fill-rule="evenodd" clip-rule="evenodd" d="M77 10C116.212 10 148 41.3397 148 79.9974C148 118.655 116.214 150 77 150C37.786 150 6 118.66 6 79.9974C6 41.3345 37.7876 10 77 10Z" fill="url(#paint0_linear_2200_4198)"/>
    <g filter="url(#filter0_i_2200_4198)">
        <path fill-rule="evenodd" clip-rule="evenodd" d="M81 10C120.212 10 152 41.3397 152 79.9974C152 118.655 120.214 150 81 150C41.786 150 10 118.66 10 79.9974C10 41.3345 41.7876 10 81 10Z" fill="url(#paint1_angular_2200_4198)"/>
    </g>
    <g filter="url(#filter1_d_2200_4198)">
        <path fill-rule="evenodd" clip-rule="evenodd" d="M81.4143 30.0001C91.6037 29.9834 101.569 32.9311 110.049 38.4699C118.53 44.0088 125.144 51.8901 129.055 61.1163C132.966 70.3424 133.998 80.499 132.021 90.3005C130.043 100.102 125.145 109.108 117.946 116.179C110.747 123.25 101.571 128.068 91.5787 130.023C81.5863 131.979 71.227 130.984 61.8116 127.164C52.3963 123.344 44.348 116.872 38.6853 108.565C33.0226 100.259 30 90.4916 30 80.5001C29.9892 67.1179 35.3999 54.2796 45.0418 44.8092C54.6837 35.3387 67.7672 30.0118 81.4143 30.0001Z" fill="url(#paint2_linear_2200_4198)"/>
    </g>
    <g filter="url(#filter2_i_2200_4198)">
        <path fill-rule="evenodd" clip-rule="evenodd" d="M80.3123 130.419C73.951 130.303 67.6345 129.021 61.6959 126.605C52.3413 122.799 44.345 116.35 38.7188 108.073C33.0927 99.7968 30.0896 90.065 30.0896 80.1095C30.0789 66.7757 35.4546 53.9837 45.0343 44.5473C54.4005 35.3213 67.0353 30.0419 80.2663 29.8003C90.0369 29.9742 99.5605 32.8964 107.705 38.2315C116.131 43.7504 122.703 51.6032 126.588 60.7961C130.474 69.989 131.5 80.1089 129.535 89.8752C127.57 99.6414 122.704 108.615 115.551 115.66C108.399 122.706 99.2817 127.507 89.3538 129.455C86.3612 130.042 83.3355 130.362 80.3123 130.419Z" fill="url(#paint3_angular_2200_4198)"/>
    </g>
    <path fill-rule="evenodd" clip-rule="evenodd" d="M115 80.0025C115 80.0025 100.945 79.2716 90.6503 89.4179C80.8135 99.1112 81.5005 113 81.5005 113C81.5005 113 82.6316 99.4664 72.29 89.2737C64.0017 81.1093 48 80.0025 48 80.0025C48 80.0025 61.4143 81.9845 72.3649 71.1947C82.817 60.8939 81.5005 47 81.5005 47C81.5005 47 81.2031 61.8154 90.5963 71.0711C100.717 81.0476 115 80.0025 115 80.0025Z" fill="url(#paint4_linear_2200_4198)"/>
    <defs>
        <filter id="filter0_i_2200_4198" x="10" y="10" width="142" height="140" filterUnits="userSpaceOnUse" color-interpolation-filters="sRGB">
            <feFlood flood-opacity="0" result="BackgroundImageFix"/>
            <feBlend mode="normal" in="SourceGraphic" in2="BackgroundImageFix" result="shape"/>
            <feColorMatrix in="SourceAlpha" type="matrix" values="0 0 0 0 0 0 0 0 0 0 0 0 0 0 0 0 0 0 127 0" result="hardAlpha"/>
            <feOffset dx="1" dy="1"/>
            <feComposite in2="hardAlpha" operator="arithmetic" k2="-1" k3="1"/>
            <feColorMatrix type="matrix" values="0 0 0 0 1 0 0 0 0 0.970854 0 0 0 0 0.81784 0 0 0 0.4 0"/>
            <feBlend mode="normal" in2="shape" result="effect1_innerShadow_2200_4198"/>
        </filter>
        <filter id="filter1_d_2200_4198" x="30" y="30" width="104" height="102" filterUnits="userSpaceOnUse" color-interpolation-filters="sRGB">
            <feFlood flood-opacity="0" result="BackgroundImageFix"/>
            <feColorMatrix in="SourceAlpha" type="matrix" values="0 0 0 0 0 0 0 0 0 0 0 0 0 0 0 0 0 0 127 0" result="hardAlpha"/>
            <feOffset dx="1" dy="1"/>
            <feComposite in2="hardAlpha" operator="out"/>
            <feColorMatrix type="matrix" values="0 0 0 0 1 0 0 0 0 0.988111 0 0 0 0 0.702786 0 0 0 0.4 0"/>
            <feBlend mode="normal" in2="BackgroundImageFix" result="effect1_dropShadow_2200_4198"/>
            <feBlend mode="normal" in="SourceGraphic" in2="effect1_dropShadow_2200_4198" result="shape"/>
        </filter>
        <filter id="filter2_i_2200_4198" x="30.0896" y="29.8003" width="100.418" height="100.619" filterUnits="userSpaceOnUse" color-interpolation-filters="sRGB">
            <feFlood flood-opacity="0" result="BackgroundImageFix"/>
            <feBlend mode="normal" in="SourceGraphic" in2="BackgroundImageFix" result="shape"/>
            <feColorMatrix in="SourceAlpha" type="matrix" values="0 0 0 0 0 0 0 0 0 0 0 0 0 0 0 0 0 0 127 0" result="hardAlpha"/>
            <feOffset dx="1" dy="1"/>
            <feComposite in2="hardAlpha" operator="arithmetic" k2="-1" k3="1"/>
            <feColorMatrix type="matrix" values="0 0 0 0 1 0 0 0 0 0.970854 0 0 0 0 0.81784 0 0 0 0.4 0"/>
            <feBlend mode="normal" in2="shape" result="effect1_innerShadow_2200_4198"/>
        </filter>
        <linearGradient id="paint0_linear_2200_4198" x1="76.9989" y1="149.995" x2="76.9989" y2="10" gradientUnits="userSpaceOnUse">
            <stop stop-color="#FFB052"/>
            <stop offset="1" stop-color="#EE9A1B"/>
        </linearGradient>
        <radialGradient id="paint1_angular_2200_4198" cx="0" cy="0" r="1" gradientUnits="userSpaceOnUse" gradientTransform="translate(80.9989 79.9974) rotate(-90) scale(69.9974 71.1139)">
            <stop offset="0.299565" stop-color="#FFDE7B"/>
            <stop offset="0.33965" stop-color="#FFF2C9"/>
            <stop offset="0.401811" stop-color="#FFDB6E"/>
            <stop offset="0.755761" stop-color="#FFCE3A"/>
            <stop offset="0.782561" stop-color="#FFEBB0"/>
            <stop offset="0.802798" stop-color="#FFD24C"/>
            <stop offset="0.92394" stop-color="#FFDE7B"/>
        </radialGradient>
        <linearGradient id="paint2_linear_2200_4198" x1="81.4159" y1="130.995" x2="81.4159" y2="30.0104" gradientUnits="userSpaceOnUse">
            <stop stop-color="#E1931E"/>
            <stop offset="1" stop-color="#EBAF0B"/>
        </linearGradient>
        <radialGradient id="paint3_angular_2200_4198" cx="0" cy="0" r="1" gradientUnits="userSpaceOnUse" gradientTransform="translate(80.2979 80.1077) rotate(-90) scale(50.3074 50.2896)">
            <stop offset="0.274914" stop-color="#F9B735"/>
            <stop offset="0.34656" stop-color="#FFF490"/>
            <stop offset="0.401811" stop-color="#FFD952"/>
            <stop offset="0.650783" stop-color="#F9B735"/>
            <stop offset="0.72523" stop-color="#FFEB81"/>
            <stop offset="0.767778" stop-color="#F9B735"/>
            <stop offset="0.92394" stop-color="#FFDD64"/>
        </radialGradient>
        <linearGradient id="paint4_linear_2200_4198" x1="81.5026" y1="113.005" x2="81.5026" y2="47" gradientUnits="userSpaceOnUse">
            <stop stop-color="#FFF4B7"/>
            <stop offset="1" stop-color="#FFDD3D"/>
        </linearGradient>
    </defs>
</svg>
