<svg width="12" height="12" viewBox="0 0 12 12" fill="none" xmlns="http://www.w3.org/2000/svg">
    <path fill-rule="evenodd" clip-rule="evenodd" d="M6 0C9.31373 0 12 2.68626 12 5.99978C12 9.3133 9.31386 12 6 12C2.68614 12 0 9.31375 0 5.99978C0 2.68582 2.68627 0 6 0Z" fill="url(#paint0_linear_2232_6350)"/>
    <path fill-rule="evenodd" clip-rule="evenodd" d="M5.99294 1.71436C6.84088 1.71295 7.67017 1.9631 8.37589 2.43316C9.08161 2.90322 9.63203 3.57207 9.9575 4.35506C10.283 5.13804 10.3689 5.99998 10.2043 6.8318C10.0397 7.66361 9.63213 8.42792 9.03305 9.028C8.43396 9.62808 7.67034 10.037 6.8388 10.2029C6.00726 10.3689 5.14518 10.2844 4.36165 9.96023C3.57812 9.63607 2.90836 9.08676 2.43713 8.38183C1.96589 7.67689 1.71436 6.84801 1.71436 6.00007C1.71346 4.86439 2.16372 3.77486 2.9661 2.97115C3.76848 2.16743 4.85726 1.71535 5.99294 1.71436Z" fill="url(#paint1_linear_2232_6350)"/>
    <path fill-rule="evenodd" clip-rule="evenodd" d="M8.85711 6.00043C8.85711 6.00043 7.65841 5.93714 6.78037 6.81561C5.94141 7.65486 6.00001 8.85735 6.00001 8.85735C6.00001 8.85735 6.09648 7.68561 5.21447 6.80313C4.50757 6.09626 3.14282 6.00043 3.14282 6.00043C3.14282 6.00043 4.2869 6.17202 5.22085 5.23784C6.11229 4.346 6.00001 3.14307 6.00001 3.14307C6.00001 3.14307 5.97464 4.42578 6.77577 5.22715C7.63898 6.09091 8.85711 6.00043 8.85711 6.00043Z" fill="url(#paint2_linear_2232_6350)"/>
    <defs>
        <linearGradient id="paint0_linear_2232_6350" x1="5.99991" y1="11.9996" x2="5.99991" y2="0" gradientUnits="userSpaceOnUse">
            <stop stop-color="#FFDE7B"/>
            <stop offset="0.006" stop-color="#FFDE7B"/>
            <stop offset="1" stop-color="#FFCE3A"/>
        </linearGradient>
        <linearGradient id="paint1_linear_2232_6350" x1="5.99307" y1="10.2853" x2="5.99307" y2="1.71524" gradientUnits="userSpaceOnUse">
            <stop stop-color="#F8C63E"/>
            <stop offset="0.006" stop-color="#F8C63E"/>
            <stop offset="1" stop-color="#EBAF0B"/>
        </linearGradient>
        <linearGradient id="paint2_linear_2232_6350" x1="6.00019" y1="8.8578" x2="6.00019" y2="3.14307" gradientUnits="userSpaceOnUse">
            <stop stop-color="#FFEEAB"/>
            <stop offset="0.006" stop-color="#FFEEAB"/>
            <stop offset="1" stop-color="#FFDD3D"/>
        </linearGradient>
    </defs>
</svg>
