<svg xmlns="http://www.w3.org/2000/svg" viewBox="0 0 512 512" width="420" height="420"
     preserveAspectRatio="xMidYMid meet"
     style="width: 100%; height: 100%; transform: translate3d(0px, 0px, 0px); content-visibility: visible;">
    <defs>
        <clipPath id="__lottie_element_2">
            <rect width="420" height="420" x="0" y="0"/>
        </clipPath>
        <radialGradient id="__lottie_element_6" spreadMethod="pad" gradientUnits="userSpaceOnUse" cx="306.9800109863281"
                        cy="85.80000305175781" r="223.98050825645748" fx="306.9800109863281" fy="85.80000305175781">
            <stop offset="40%" stop-color="rgb(240,122,153)" stop-opacity="1"/>
            <stop offset="88%" stop-color="rgb(240,122,153)" stop-opacity="0"/>
        </radialGradient>
        <radialGradient id="__lottie_element_7" spreadMethod="pad" gradientUnits="userSpaceOnUse"
                        cx="107.02999877929688" cy="89" r="197.18159390202413" fx="107.02999877929688" fy="89">
            <stop offset="25%" stop-color="rgb(250,94,217)" stop-opacity="1"/>
            <stop offset="88%" stop-color="rgb(250,94,217)" stop-opacity="0"/>
        </radialGradient>
        <radialGradient id="__lottie_element_8" spreadMethod="pad" gradientUnits="userSpaceOnUse"
                        cx="289.92999267578125" cy="275.2300109863281" r="188.50881024886624" fx="289.92999267578125"
                        fy="275.2300109863281">
            <stop offset="25%" stop-color="rgb(168,130,247)" stop-opacity="1"/>
            <stop offset="88%" stop-color="rgb(250,94,217)" stop-opacity="0"/>
        </radialGradient>
        <radialGradient id="__lottie_element_9" spreadMethod="pad" gradientUnits="userSpaceOnUse"
                        cx="116.86000061035156" cy="308.510009765625" r="187.97281945800782" fx="116.86000061035156"
                        fy="308.510009765625">
            <stop offset="11%" stop-color="rgb(102,128,252)" stop-opacity="1"/>
            <stop offset="80%" stop-color="rgb(105,128,252)" stop-opacity="0"/>
        </radialGradient>
    </defs>
    <g clip-path="url(#__lottie_element_2)">
        <g transform="matrix(1.333299994468689,0,0,1.333299994468689,0,0)" opacity="1" style="display: block;">
            <g opacity="1" transform="matrix(1,0,0,1,0,0)">
                <g opacity="1" transform="matrix(1,0,0,1,0,0)">
                    <path fill="rgb(186,76,214)" fill-opacity="1"
                          d=" M185.32000732421875,275.6099853515625 C185.32000732421875,275.6099853515625 130.27999877929688,310.2200012207031 130.27999877929688,310.2200012207031 C124.55999755859375,313.80999755859375 117.01000213623047,312.0899963378906 113.41999816894531,306.3699951171875 C111.6500015258789,303.55999755859375 111.0999984741211,300.1499938964844 111.9000015258789,296.92999267578125 C111.9000015258789,296.92999267578125 120.81999969482422,260.8999938964844 120.81999969482422,260.8999938964844 C123.75,249.05999755859375 131.6300048828125,239.0500030517578 142.4499969482422,233.42999267578125 C142.4499969482422,233.42999267578125 193.86000061035156,206.74000549316406 193.86000061035156,206.74000549316406 C196.6300048828125,205.3000030517578 197.7100067138672,201.8800048828125 196.27000427246094,199.11000061035156 C195.14999389648438,196.9499969482422 192.77000427246094,195.75 190.3699951171875,196.1300048828125 C190.3699951171875,196.1300048828125 133.08999633789062,205.19000244140625 133.08999633789062,205.19000244140625 C119.41000366210938,207.35000610351562 105.4800033569336,203.38999938964844 94.9800033569336,194.36000061035156 C94.9800033569336,194.36000061035156 72.94000244140625,175.41000366210938 72.94000244140625,175.41000366210938 C67.81999969482422,171 67.23999786376953,163.27999877929688 71.63999938964844,158.16000366210938 C73.73999786376953,155.7100067138672 76.72000122070312,154.1999969482422 79.93000030517578,153.94000244140625 C79.93000030517578,153.94000244140625 145.17999267578125,148.6999969482422 145.17999267578125,148.6999969482422 C149.8000030517578,148.3300018310547 153.80999755859375,145.3800048828125 155.5399932861328,141.08999633789062 C155.5399932861328,141.08999633789062 180.47999572753906,79.27999877929688 180.47999572753906,79.27999877929688 C183.00999450683594,73.01000213623047 190.13999938964844,69.98999786376953 196.39999389648438,72.5199966430664 C199.47999572753906,73.7699966430664 201.92999267578125,76.19999694824219 203.1699981689453,79.27999877929688 C203.1699981689453,79.27999877929688 228.1199951171875,141.08999633789062 228.1199951171875,141.08999633789062 C229.85000610351562,145.3800048828125 233.86000061035156,148.3300018310547 238.47999572753906,148.6999969482422 C238.47999572753906,148.6999969482422 304.05999755859375,153.97000122070312 304.05999755859375,153.97000122070312 C310.7900085449219,154.50999450683594 315.80999755859375,160.41000366210938 315.2699890136719,167.13999938964844 C315.0199890136719,170.32000732421875 313.5400085449219,173.27000427246094 311.1400146484375,175.3699951171875 C311.1400146484375,175.3699951171875 260.6499938964844,219.5399932861328 260.6499938964844,219.5399932861328 C257.25,222.52000427246094 255.75999450683594,227.1300048828125 256.79998779296875,231.5399932861328 C256.79998779296875,231.5399932861328 272.239990234375,297.3500061035156 272.239990234375,297.3500061035156 C273.7799987792969,303.92999267578125 269.70001220703125,310.510009765625 263.1199951171875,312.04998779296875 C259.94000244140625,312.79998779296875 256.5899963378906,312.239990234375 253.82000732421875,310.5 C253.82000732421875,310.5 198.33999633789062,275.6099853515625 198.33999633789062,275.6099853515625 C194.36000061035156,273.1099853515625 189.3000030517578,273.1099853515625 185.32000732421875,275.6099853515625 C185.32000732421875,275.6099853515625 185.32000732421875,275.6099853515625 185.32000732421875,275.6099853515625z"/>
                </g>
                <g opacity="1" transform="matrix(1,0,0,1,0,0)">
                    <path fill="url(#__lottie_element_6)" fill-opacity="1"
                          d=" M185.32000732421875,275.6099853515625 C185.32000732421875,275.6099853515625 130.27999877929688,310.2200012207031 130.27999877929688,310.2200012207031 C124.55999755859375,313.80999755859375 117.01000213623047,312.0899963378906 113.41999816894531,306.3699951171875 C111.6500015258789,303.55999755859375 111.0999984741211,300.1499938964844 111.9000015258789,296.92999267578125 C111.9000015258789,296.92999267578125 120.81999969482422,260.8999938964844 120.81999969482422,260.8999938964844 C123.75,249.05999755859375 131.6300048828125,239.0500030517578 142.4499969482422,233.42999267578125 C142.4499969482422,233.42999267578125 193.86000061035156,206.74000549316406 193.86000061035156,206.74000549316406 C196.6300048828125,205.3000030517578 197.7100067138672,201.8800048828125 196.27000427246094,199.11000061035156 C195.14999389648438,196.9499969482422 192.77000427246094,195.75 190.3699951171875,196.1300048828125 C190.3699951171875,196.1300048828125 133.08999633789062,205.19000244140625 133.08999633789062,205.19000244140625 C119.41000366210938,207.35000610351562 105.4800033569336,203.38999938964844 94.9800033569336,194.36000061035156 C94.9800033569336,194.36000061035156 72.94000244140625,175.41000366210938 72.94000244140625,175.41000366210938 C67.81999969482422,171 67.23999786376953,163.27999877929688 71.63999938964844,158.16000366210938 C73.73999786376953,155.7100067138672 76.72000122070312,154.1999969482422 79.93000030517578,153.94000244140625 C79.93000030517578,153.94000244140625 145.17999267578125,148.6999969482422 145.17999267578125,148.6999969482422 C149.8000030517578,148.3300018310547 153.80999755859375,145.3800048828125 155.5399932861328,141.08999633789062 C155.5399932861328,141.08999633789062 180.47999572753906,79.27999877929688 180.47999572753906,79.27999877929688 C183.00999450683594,73.01000213623047 190.13999938964844,69.98999786376953 196.39999389648438,72.5199966430664 C199.47999572753906,73.7699966430664 201.92999267578125,76.19999694824219 203.1699981689453,79.27999877929688 C203.1699981689453,79.27999877929688 228.1199951171875,141.08999633789062 228.1199951171875,141.08999633789062 C229.85000610351562,145.3800048828125 233.86000061035156,148.3300018310547 238.47999572753906,148.6999969482422 C238.47999572753906,148.6999969482422 304.05999755859375,153.97000122070312 304.05999755859375,153.97000122070312 C310.7900085449219,154.50999450683594 315.80999755859375,160.41000366210938 315.2699890136719,167.13999938964844 C315.0199890136719,170.32000732421875 313.5400085449219,173.27000427246094 311.1400146484375,175.3699951171875 C311.1400146484375,175.3699951171875 260.6499938964844,219.5399932861328 260.6499938964844,219.5399932861328 C257.25,222.52000427246094 255.75999450683594,227.1300048828125 256.79998779296875,231.5399932861328 C256.79998779296875,231.5399932861328 272.239990234375,297.3500061035156 272.239990234375,297.3500061035156 C273.7799987792969,303.92999267578125 269.70001220703125,310.510009765625 263.1199951171875,312.04998779296875 C259.94000244140625,312.79998779296875 256.5899963378906,312.239990234375 253.82000732421875,310.5 C253.82000732421875,310.5 198.33999633789062,275.6099853515625 198.33999633789062,275.6099853515625 C194.36000061035156,273.1099853515625 189.3000030517578,273.1099853515625 185.32000732421875,275.6099853515625 C185.32000732421875,275.6099853515625 185.32000732421875,275.6099853515625 185.32000732421875,275.6099853515625z"/>
                </g>
                <g opacity="1" transform="matrix(1,0,0,1,0,0)">
                    <path fill="url(#__lottie_element_7)" fill-opacity="1"
                          d=" M185.32000732421875,275.6099853515625 C185.32000732421875,275.6099853515625 130.27999877929688,310.2200012207031 130.27999877929688,310.2200012207031 C124.55999755859375,313.80999755859375 117.01000213623047,312.0899963378906 113.41999816894531,306.3699951171875 C111.6500015258789,303.55999755859375 111.0999984741211,300.1499938964844 111.9000015258789,296.92999267578125 C111.9000015258789,296.92999267578125 120.81999969482422,260.8999938964844 120.81999969482422,260.8999938964844 C123.75,249.05999755859375 131.6300048828125,239.0500030517578 142.4499969482422,233.42999267578125 C142.4499969482422,233.42999267578125 193.86000061035156,206.74000549316406 193.86000061035156,206.74000549316406 C196.6300048828125,205.3000030517578 197.7100067138672,201.8800048828125 196.27000427246094,199.11000061035156 C195.14999389648438,196.9499969482422 192.77000427246094,195.75 190.3699951171875,196.1300048828125 C190.3699951171875,196.1300048828125 133.08999633789062,205.19000244140625 133.08999633789062,205.19000244140625 C119.41000366210938,207.35000610351562 105.4800033569336,203.38999938964844 94.9800033569336,194.36000061035156 C94.9800033569336,194.36000061035156 72.94000244140625,175.41000366210938 72.94000244140625,175.41000366210938 C67.81999969482422,171 67.23999786376953,163.27999877929688 71.63999938964844,158.16000366210938 C73.73999786376953,155.7100067138672 76.72000122070312,154.1999969482422 79.93000030517578,153.94000244140625 C79.93000030517578,153.94000244140625 145.17999267578125,148.6999969482422 145.17999267578125,148.6999969482422 C149.8000030517578,148.3300018310547 153.80999755859375,145.3800048828125 155.5399932861328,141.08999633789062 C155.5399932861328,141.08999633789062 180.47999572753906,79.27999877929688 180.47999572753906,79.27999877929688 C183.00999450683594,73.01000213623047 190.13999938964844,69.98999786376953 196.39999389648438,72.5199966430664 C199.47999572753906,73.7699966430664 201.92999267578125,76.19999694824219 203.1699981689453,79.27999877929688 C203.1699981689453,79.27999877929688 228.1199951171875,141.08999633789062 228.1199951171875,141.08999633789062 C229.85000610351562,145.3800048828125 233.86000061035156,148.3300018310547 238.47999572753906,148.6999969482422 C238.47999572753906,148.6999969482422 304.05999755859375,153.97000122070312 304.05999755859375,153.97000122070312 C310.7900085449219,154.50999450683594 315.80999755859375,160.41000366210938 315.2699890136719,167.13999938964844 C315.0199890136719,170.32000732421875 313.5400085449219,173.27000427246094 311.1400146484375,175.3699951171875 C311.1400146484375,175.3699951171875 260.6499938964844,219.5399932861328 260.6499938964844,219.5399932861328 C257.25,222.52000427246094 255.75999450683594,227.1300048828125 256.79998779296875,231.5399932861328 C256.79998779296875,231.5399932861328 272.239990234375,297.3500061035156 272.239990234375,297.3500061035156 C273.7799987792969,303.92999267578125 269.70001220703125,310.510009765625 263.1199951171875,312.04998779296875 C259.94000244140625,312.79998779296875 256.5899963378906,312.239990234375 253.82000732421875,310.5 C253.82000732421875,310.5 198.33999633789062,275.6099853515625 198.33999633789062,275.6099853515625 C194.36000061035156,273.1099853515625 189.3000030517578,273.1099853515625 185.32000732421875,275.6099853515625 C185.32000732421875,275.6099853515625 185.32000732421875,275.6099853515625 185.32000732421875,275.6099853515625z"/>
                </g>
                <g opacity="1" transform="matrix(1,0,0,1,0,0)">
                    <path fill="url(#__lottie_element_8)" fill-opacity="1"
                          d=" M185.32000732421875,275.6099853515625 C185.32000732421875,275.6099853515625 130.27999877929688,310.2200012207031 130.27999877929688,310.2200012207031 C124.55999755859375,313.80999755859375 117.01000213623047,312.0899963378906 113.41999816894531,306.3699951171875 C111.6500015258789,303.55999755859375 111.0999984741211,300.1499938964844 111.9000015258789,296.92999267578125 C111.9000015258789,296.92999267578125 120.81999969482422,260.8999938964844 120.81999969482422,260.8999938964844 C123.75,249.05999755859375 131.6300048828125,239.0500030517578 142.4499969482422,233.42999267578125 C142.4499969482422,233.42999267578125 193.86000061035156,206.74000549316406 193.86000061035156,206.74000549316406 C196.6300048828125,205.3000030517578 197.7100067138672,201.8800048828125 196.27000427246094,199.11000061035156 C195.14999389648438,196.9499969482422 192.77000427246094,195.75 190.3699951171875,196.1300048828125 C190.3699951171875,196.1300048828125 133.08999633789062,205.19000244140625 133.08999633789062,205.19000244140625 C119.41000366210938,207.35000610351562 105.4800033569336,203.38999938964844 94.9800033569336,194.36000061035156 C94.9800033569336,194.36000061035156 72.94000244140625,175.41000366210938 72.94000244140625,175.41000366210938 C67.81999969482422,171 67.23999786376953,163.27999877929688 71.63999938964844,158.16000366210938 C73.73999786376953,155.7100067138672 76.72000122070312,154.1999969482422 79.93000030517578,153.94000244140625 C79.93000030517578,153.94000244140625 145.17999267578125,148.6999969482422 145.17999267578125,148.6999969482422 C149.8000030517578,148.3300018310547 153.80999755859375,145.3800048828125 155.5399932861328,141.08999633789062 C155.5399932861328,141.08999633789062 180.47999572753906,79.27999877929688 180.47999572753906,79.27999877929688 C183.00999450683594,73.01000213623047 190.13999938964844,69.98999786376953 196.39999389648438,72.5199966430664 C199.47999572753906,73.7699966430664 201.92999267578125,76.19999694824219 203.1699981689453,79.27999877929688 C203.1699981689453,79.27999877929688 228.1199951171875,141.08999633789062 228.1199951171875,141.08999633789062 C229.85000610351562,145.3800048828125 233.86000061035156,148.3300018310547 238.47999572753906,148.6999969482422 C238.47999572753906,148.6999969482422 304.05999755859375,153.97000122070312 304.05999755859375,153.97000122070312 C310.7900085449219,154.50999450683594 315.80999755859375,160.41000366210938 315.2699890136719,167.13999938964844 C315.0199890136719,170.32000732421875 313.5400085449219,173.27000427246094 311.1400146484375,175.3699951171875 C311.1400146484375,175.3699951171875 260.6499938964844,219.5399932861328 260.6499938964844,219.5399932861328 C257.25,222.52000427246094 255.75999450683594,227.1300048828125 256.79998779296875,231.5399932861328 C256.79998779296875,231.5399932861328 272.239990234375,297.3500061035156 272.239990234375,297.3500061035156 C273.7799987792969,303.92999267578125 269.70001220703125,310.510009765625 263.1199951171875,312.04998779296875 C259.94000244140625,312.79998779296875 256.5899963378906,312.239990234375 253.82000732421875,310.5 C253.82000732421875,310.5 198.33999633789062,275.6099853515625 198.33999633789062,275.6099853515625 C194.36000061035156,273.1099853515625 189.3000030517578,273.1099853515625 185.32000732421875,275.6099853515625 C185.32000732421875,275.6099853515625 185.32000732421875,275.6099853515625 185.32000732421875,275.6099853515625z"/>
                </g>
                <g opacity="1" transform="matrix(1,0,0,1,0,0)">
                    <path fill="url(#__lottie_element_9)" fill-opacity="1"
                          d=" M185.32000732421875,275.6099853515625 C185.32000732421875,275.6099853515625 130.27999877929688,310.2200012207031 130.27999877929688,310.2200012207031 C124.55999755859375,313.80999755859375 117.01000213623047,312.0899963378906 113.41999816894531,306.3699951171875 C111.6500015258789,303.55999755859375 111.0999984741211,300.1499938964844 111.9000015258789,296.92999267578125 C111.9000015258789,296.92999267578125 120.81999969482422,260.8999938964844 120.81999969482422,260.8999938964844 C123.75,249.05999755859375 131.6300048828125,239.0500030517578 142.4499969482422,233.42999267578125 C142.4499969482422,233.42999267578125 193.86000061035156,206.74000549316406 193.86000061035156,206.74000549316406 C196.6300048828125,205.3000030517578 197.7100067138672,201.8800048828125 196.27000427246094,199.11000061035156 C195.14999389648438,196.9499969482422 192.77000427246094,195.75 190.3699951171875,196.1300048828125 C190.3699951171875,196.1300048828125 133.08999633789062,205.19000244140625 133.08999633789062,205.19000244140625 C119.41000366210938,207.35000610351562 105.4800033569336,203.38999938964844 94.9800033569336,194.36000061035156 C94.9800033569336,194.36000061035156 72.94000244140625,175.41000366210938 72.94000244140625,175.41000366210938 C67.81999969482422,171 67.23999786376953,163.27999877929688 71.63999938964844,158.16000366210938 C73.73999786376953,155.7100067138672 76.72000122070312,154.1999969482422 79.93000030517578,153.94000244140625 C79.93000030517578,153.94000244140625 145.17999267578125,148.6999969482422 145.17999267578125,148.6999969482422 C149.8000030517578,148.3300018310547 153.80999755859375,145.3800048828125 155.5399932861328,141.08999633789062 C155.5399932861328,141.08999633789062 180.47999572753906,79.27999877929688 180.47999572753906,79.27999877929688 C183.00999450683594,73.01000213623047 190.13999938964844,69.98999786376953 196.39999389648438,72.5199966430664 C199.47999572753906,73.7699966430664 201.92999267578125,76.19999694824219 203.1699981689453,79.27999877929688 C203.1699981689453,79.27999877929688 228.1199951171875,141.08999633789062 228.1199951171875,141.08999633789062 C229.85000610351562,145.3800048828125 233.86000061035156,148.3300018310547 238.47999572753906,148.6999969482422 C238.47999572753906,148.6999969482422 304.05999755859375,153.97000122070312 304.05999755859375,153.97000122070312 C310.7900085449219,154.50999450683594 315.80999755859375,160.41000366210938 315.2699890136719,167.13999938964844 C315.0199890136719,170.32000732421875 313.5400085449219,173.27000427246094 311.1400146484375,175.3699951171875 C311.1400146484375,175.3699951171875 260.6499938964844,219.5399932861328 260.6499938964844,219.5399932861328 C257.25,222.52000427246094 255.75999450683594,227.1300048828125 256.79998779296875,231.5399932861328 C256.79998779296875,231.5399932861328 272.239990234375,297.3500061035156 272.239990234375,297.3500061035156 C273.7799987792969,303.92999267578125 269.70001220703125,310.510009765625 263.1199951171875,312.04998779296875 C259.94000244140625,312.79998779296875 256.5899963378906,312.239990234375 253.82000732421875,310.5 C253.82000732421875,310.5 198.33999633789062,275.6099853515625 198.33999633789062,275.6099853515625 C194.36000061035156,273.1099853515625 189.3000030517578,273.1099853515625 185.32000732421875,275.6099853515625 C185.32000732421875,275.6099853515625 185.32000732421875,275.6099853515625 185.32000732421875,275.6099853515625z"/>
                </g>
            </g>
        </g>
    </g>
</svg>