<svg width="14" height="14" viewBox="0 0 14 14" fill="none" xmlns="http://www.w3.org/2000/svg">
    <path d="M11.0687 5.69629H10.3337V4.21754C10.3337 2.36254 8.85587 0.883789 7.00875 0.883789C5.1625 0.883789 3.68375 2.36254 3.68375 4.21754V5.69629H2.94875C2.54625 5.69629 2.21375 6.02879 2.21375 6.43129V12.355C2.21375 12.7575 2.54625 13.09 2.94875 13.09H11.0687C11.48 13.09 11.8125 12.7575 11.8125 12.355V6.43129C11.8125 6.02879 11.48 5.69629 11.0687 5.69629ZM9.2225 5.69629H4.795V4.21754C4.795 2.99254 5.7925 1.99504 7.00875 1.99504C7.59667 1.99735 8.15973 2.23253 8.57464 2.64908C8.98955 3.06563 9.2225 3.62961 9.2225 4.21754V5.69629Z" fill="#FFD041"/>
</svg>