<svg width="32" height="33" viewBox="0 0 32 33" fill="none" xmlns="http://www.w3.org/2000/svg">
    <path d="M10 17H22V33L16 29L10 33V17Z" fill="#E3452D"/>
    <path fill-rule="evenodd" clip-rule="evenodd" d="M15.923 0C23.6124 0 29.8459 5.99296 29.8459 13.3853C29.8459 20.7777 23.6127 26.7716 15.923 26.7716C8.23317 26.7716 2 20.7787 2 13.3853C2 5.99197 8.23348 0 15.923 0Z" fill="url(#paint0_linear_2418_72)"/>
    <path fill-rule="evenodd" clip-rule="evenodd" d="M15.906 3.82472C17.8736 3.82157 19.798 4.37965 21.4356 5.42834C23.0732 6.47703 24.3504 7.96921 25.1057 9.71602C25.8609 11.4628 26.0602 13.3858 25.6784 15.2416C25.2965 17.0973 24.3507 18.8024 22.9605 20.1412C21.5703 21.48 19.7983 22.3922 17.8688 22.7624C15.9392 23.1326 13.9387 22.9442 12.1206 22.221C10.3024 21.4978 8.74823 20.2723 7.65473 18.6996C6.56123 17.1269 5.97754 15.2777 5.97754 13.386C5.97546 10.8523 7.02028 8.42163 8.8822 6.62856C10.7441 4.8355 13.2706 3.82693 15.906 3.82472Z" fill="url(#paint1_linear_2418_72)"/>
    <path d="M13.1316 8.808C14.2936 8.808 15.2036 9.284 15.8616 10.264C16.4776 11.188 16.7856 12.434 16.7856 14.002C16.7856 15.57 16.4776 16.816 15.8616 17.74C15.2036 18.706 14.2936 19.196 13.1316 19.196C11.9556 19.196 11.0456 18.706 10.4016 17.74C9.78564 16.816 9.47764 15.57 9.47764 14.002C9.47764 12.434 9.78564 11.188 10.4016 10.264C11.0456 9.284 11.9556 8.808 13.1316 8.808ZM13.1316 10.194C12.3336 10.194 11.7736 10.628 11.4516 11.524C11.2276 12.126 11.1156 12.952 11.1156 14.002C11.1156 15.038 11.2276 15.864 11.4516 16.48C11.7736 17.362 12.3336 17.81 13.1316 17.81C13.9156 17.81 14.4756 17.362 14.8116 16.48C15.0356 15.864 15.1476 15.038 15.1476 14.002C15.1476 12.952 15.0356 12.126 14.8116 11.524C14.4756 10.628 13.9156 10.194 13.1316 10.194ZM20.5742 9.004H21.8062V19H20.1682V10.978C19.5662 11.524 18.8102 11.93 17.8862 12.196V10.572C18.3342 10.46 18.8102 10.264 19.3142 9.984C19.8182 9.676 20.2382 9.354 20.5742 9.004Z" fill="#FFF1C7"/>
    <defs>
        <linearGradient id="paint0_linear_2418_72" x1="15.9227" y1="26.7706" x2="15.9227" y2="0" gradientUnits="userSpaceOnUse">
            <stop stop-color="#FFDE7B"/>
            <stop offset="0.006" stop-color="#FFDE7B"/>
            <stop offset="1" stop-color="#FFCE3A"/>
        </linearGradient>
        <linearGradient id="paint1_linear_2418_72" x1="15.9063" y1="22.9463" x2="15.9063" y2="3.82668" gradientUnits="userSpaceOnUse">
            <stop stop-color="#F8C63E"/>
            <stop offset="0.006" stop-color="#F8C63E"/>
            <stop offset="1" stop-color="#EBAF0B"/>
        </linearGradient>
    </defs>
</svg>
