<svg width="28" height="33" viewBox="0 0 28 33" fill="none" xmlns="http://www.w3.org/2000/svg">
    <path d="M8 17H20V33L14 29L8 33V17Z" fill="#B7551E"/>
    <path fill-rule="evenodd" clip-rule="evenodd" d="M13.923 0C21.6124 0 27.8459 5.99296 27.8459 13.3853C27.8459 20.7777 21.6127 26.7716 13.923 26.7716C6.23317 26.7716 0 20.7787 0 13.3853C0 5.99197 6.23348 0 13.923 0Z" fill="url(#paint0_linear_0_1)"/>
    <path fill-rule="evenodd" clip-rule="evenodd" d="M13.906 3.82472C15.8736 3.82157 17.798 4.37965 19.4356 5.42834C21.0732 6.47703 22.3504 7.96921 23.1057 9.71602C23.8609 11.4628 24.0602 13.3858 23.6784 15.2416C23.2965 17.0973 22.3507 18.8024 20.9605 20.1412C19.5703 21.48 17.7983 22.3922 15.8688 22.7624C13.9392 23.1326 11.9387 22.9442 10.1206 22.221C8.3024 21.4978 6.74823 20.2723 5.65473 18.6996C4.56123 17.1269 3.97754 15.2777 3.97754 13.386C3.97546 10.8523 5.02028 8.42163 6.8822 6.62856C8.74412 4.8355 11.2706 3.82693 13.906 3.82472Z" fill="url(#paint1_linear_0_1)"/>
    <path d="M9.80547 8.808C10.9675 8.808 11.8775 9.284 12.5355 10.264C13.1515 11.188 13.4595 12.434 13.4595 14.002C13.4595 15.57 13.1515 16.816 12.5355 17.74C11.8775 18.706 10.9675 19.196 9.80547 19.196C8.62947 19.196 7.71947 18.706 7.07547 17.74C6.45947 16.816 6.15147 15.57 6.15147 14.002C6.15147 12.434 6.45947 11.188 7.07547 10.264C7.71947 9.284 8.62947 8.808 9.80547 8.808ZM9.80547 10.194C9.00747 10.194 8.44747 10.628 8.12547 11.524C7.90147 12.126 7.78947 12.952 7.78947 14.002C7.78947 15.038 7.90147 15.864 8.12547 16.48C8.44747 17.362 9.00747 17.81 9.80547 17.81C10.5895 17.81 11.1495 17.362 11.4855 16.48C11.7095 15.864 11.8215 15.038 11.8215 14.002C11.8215 12.952 11.7095 12.126 11.4855 11.524C11.1495 10.628 10.5895 10.194 9.80547 10.194ZM18.298 8.808C19.306 8.808 20.132 9.046 20.748 9.536C21.35 10.026 21.658 10.698 21.658 11.566C21.658 12.658 21.098 13.386 19.992 13.75C20.58 13.932 21.042 14.198 21.35 14.562C21.686 14.94 21.854 15.43 21.854 16.018C21.854 16.942 21.532 17.698 20.888 18.286C20.216 18.888 19.334 19.196 18.242 19.196C17.206 19.196 16.366 18.93 15.736 18.398C15.036 17.81 14.644 16.942 14.56 15.822H16.226C16.254 16.466 16.45 16.97 16.842 17.32C17.192 17.642 17.654 17.81 18.228 17.81C18.858 17.81 19.362 17.628 19.726 17.278C20.048 16.956 20.216 16.564 20.216 16.088C20.216 15.514 20.034 15.094 19.698 14.828C19.362 14.548 18.872 14.422 18.228 14.422H17.528V13.19H18.228C18.816 13.19 19.264 13.064 19.572 12.812C19.866 12.56 20.02 12.182 20.02 11.692C20.02 11.202 19.88 10.838 19.614 10.586C19.32 10.334 18.886 10.208 18.312 10.208C17.724 10.208 17.276 10.348 16.954 10.642C16.618 10.936 16.422 11.384 16.366 11.986H14.756C14.84 10.978 15.204 10.194 15.876 9.634C16.506 9.074 17.318 8.808 18.298 8.808Z" fill="#FFD0A5"/>
    <defs>
        <linearGradient id="paint0_linear_0_1" x1="13.9227" y1="26.7706" x2="13.9227" y2="0" gradientUnits="userSpaceOnUse">
            <stop stop-color="#BE8644"/>
            <stop offset="1" stop-color="#E5B28E"/>
        </linearGradient>
        <linearGradient id="paint1_linear_0_1" x1="13.9063" y1="22.9463" x2="13.9063" y2="3.82668" gradientUnits="userSpaceOnUse">
            <stop stop-color="#94653A"/>
            <stop offset="1" stop-color="#CB9869"/>
        </linearGradient>
    </defs>
</svg>
