<svg width="28" height="33" viewBox="0 0 28 33" fill="none" xmlns="http://www.w3.org/2000/svg">
    <path d="M8 17H20V33L14 29L8 33V17Z" fill="#E4B91F"/>
    <path fill-rule="evenodd" clip-rule="evenodd" d="M13.923 0C21.6124 0 27.8459 5.99296 27.8459 13.3853C27.8459 20.7777 21.6127 26.7716 13.923 26.7716C6.23317 26.7716 0 20.7787 0 13.3853C0 5.99197 6.23348 0 13.923 0Z" fill="url(#paint0_linear_0_1)"/>
    <path fill-rule="evenodd" clip-rule="evenodd" d="M13.906 3.82472C15.8736 3.82157 17.798 4.37965 19.4356 5.42834C21.0732 6.47703 22.3504 7.96921 23.1057 9.71602C23.8609 11.4628 24.0602 13.3858 23.6784 15.2416C23.2965 17.0973 22.3507 18.8024 20.9605 20.1412C19.5703 21.48 17.7983 22.3922 15.8688 22.7624C13.9392 23.1326 11.9387 22.9442 10.1206 22.221C8.3024 21.4978 6.74823 20.2723 5.65473 18.6996C4.56123 17.1269 3.97754 15.2777 3.97754 13.386C3.97546 10.8523 5.02028 8.42163 6.8822 6.62856C8.74412 4.8355 11.2706 3.82693 13.906 3.82472Z" fill="url(#paint1_linear_0_1)"/>
    <path d="M9.80547 8.808C10.9675 8.808 11.8775 9.284 12.5355 10.264C13.1515 11.188 13.4595 12.434 13.4595 14.002C13.4595 15.57 13.1515 16.816 12.5355 17.74C11.8775 18.706 10.9675 19.196 9.80547 19.196C8.62947 19.196 7.71947 18.706 7.07547 17.74C6.45947 16.816 6.15147 15.57 6.15147 14.002C6.15147 12.434 6.45947 11.188 7.07547 10.264C7.71947 9.284 8.62947 8.808 9.80547 8.808ZM9.80547 10.194C9.00747 10.194 8.44747 10.628 8.12547 11.524C7.90147 12.126 7.78947 12.952 7.78947 14.002C7.78947 15.038 7.90147 15.864 8.12547 16.48C8.44747 17.362 9.00747 17.81 9.80547 17.81C10.5895 17.81 11.1495 17.362 11.4855 16.48C11.7095 15.864 11.8215 15.038 11.8215 14.002C11.8215 12.952 11.7095 12.126 11.4855 11.524C11.1495 10.628 10.5895 10.194 9.80547 10.194ZM18.354 8.808C19.32 8.808 20.118 9.088 20.748 9.648C21.364 10.208 21.672 10.922 21.672 11.818C21.672 12.686 21.336 13.47 20.692 14.184C20.3 14.604 19.6 15.136 18.62 15.794C17.598 16.466 16.982 17.054 16.758 17.558H21.686V19H14.714C14.714 17.978 15.036 17.096 15.708 16.34C16.072 15.92 16.842 15.304 18.004 14.506C18.648 14.058 19.096 13.68 19.376 13.386C19.81 12.896 20.034 12.364 20.034 11.804C20.034 11.258 19.88 10.852 19.6 10.586C19.306 10.32 18.872 10.194 18.298 10.194C17.682 10.194 17.22 10.404 16.912 10.824C16.604 11.216 16.436 11.818 16.408 12.602H14.77C14.784 11.482 15.106 10.586 15.75 9.9C16.408 9.172 17.276 8.808 18.354 8.808Z" fill="#F0F9FA"/>
    <defs>
        <linearGradient id="paint0_linear_0_1" x1="13.9227" y1="26.7706" x2="13.9227" y2="0" gradientUnits="userSpaceOnUse">
            <stop offset="0.006" stop-color="#BDC7CC"/>
            <stop offset="1" stop-color="#F7F5EE"/>
        </linearGradient>
        <linearGradient id="paint1_linear_0_1" x1="13.9063" y1="22.9463" x2="13.9063" y2="3.82668" gradientUnits="userSpaceOnUse">
            <stop offset="0.006" stop-color="#8AA4A4"/>
            <stop offset="1" stop-color="#CDC9BF"/>
        </linearGradient>
    </defs>
</svg>