<svg width="42" height="42" viewBox="0 0 42 42" fill="none" xmlns="http://www.w3.org/2000/svg">
    <path fill-rule="evenodd" clip-rule="evenodd" d="M21 0C32.598 0 42 9.40191 42 20.9992C42 32.5966 32.5985 42 21 42C9.40149 42 0 32.5981 0 20.9992C0 9.40036 9.40196 0 21 0Z" fill="url(#paint0_linear_2107_300)"/>
    <path fill-rule="evenodd" clip-rule="evenodd" d="M20.975 6.00002C23.9428 5.99508 26.8454 6.87061 29.3154 8.51583C31.7854 10.161 33.7119 12.502 34.851 15.2425C35.9902 17.9829 36.2908 20.9997 35.7148 23.911C35.1389 26.8224 33.7122 29.4975 31.6154 31.5978C29.5186 33.698 26.8459 35.1291 23.9355 35.7099C21.0251 36.2907 18.0079 35.9951 15.2655 34.8606C12.5232 33.726 10.179 31.8034 8.5297 29.3362C6.88037 26.8689 6.00001 23.9678 6 21C5.99686 17.0251 7.57277 13.2118 10.3811 10.3988C13.1894 7.58575 17.0002 6.00349 20.975 6.00002Z" fill="url(#paint1_linear_2107_300)"/>
    <path fill-rule="evenodd" clip-rule="evenodd" d="M31 21.0008C31 21.0008 26.8045 20.7793 23.7314 23.8539C20.7951 26.7913 21.0002 31 21.0002 31C21.0002 31 21.3378 26.8989 18.2508 23.8102C15.7766 21.3362 11 21.0008 11 21.0008C11 21.0008 15.0043 21.6013 18.2731 18.3317C21.3931 15.2103 21.0002 11 21.0002 11C21.0002 11 20.9114 15.4895 23.7153 18.2943C26.7365 21.3174 31 21.0008 31 21.0008Z" fill="url(#paint2_linear_2107_300)"/>
    <defs>
        <linearGradient id="paint0_linear_2107_300" x1="20.9997" y1="41.9984" x2="20.9997" y2="0" gradientUnits="userSpaceOnUse">
            <stop stop-color="#FFDE7B"/>
            <stop offset="0.006" stop-color="#FFDE7B"/>
            <stop offset="1" stop-color="#FFCE3A"/>
        </linearGradient>
        <linearGradient id="paint1_linear_2107_300" x1="20.9755" y1="35.9985" x2="20.9755" y2="6.0031" gradientUnits="userSpaceOnUse">
            <stop stop-color="#F8C63E"/>
            <stop offset="0.006" stop-color="#F8C63E"/>
            <stop offset="1" stop-color="#EBAF0B"/>
        </linearGradient>
        <linearGradient id="paint2_linear_2107_300" x1="21.0008" y1="31.0016" x2="21.0008" y2="11" gradientUnits="userSpaceOnUse">
            <stop stop-color="#FFEEAB"/>
            <stop offset="0.006" stop-color="#FFEEAB"/>
            <stop offset="1" stop-color="#FFDD3D"/>
        </linearGradient>
    </defs>
</svg>
