<svg xmlns="http://www.w3.org/2000/svg" width="32" height="32" viewBox="0 0 32 32" fill="none">
<rect width="32" height="32" rx="16" fill="white" fill-opacity="0.1"/>
<rect x="0.5" y="0.5" width="31" height="31" rx="15.5" stroke="white" stroke-opacity="0.5"/>
<path d="M15.9093 10.004C17.1573 10.004 18.1593 10.346 18.9153 11.03C19.6833 11.702 20.0673 12.632 20.0673 13.82C20.0673 14.996 19.6893 15.896 18.9333 16.52C18.1773 17.132 17.1753 17.438 15.9273 17.438L15.8553 18.824H13.6413L13.5513 15.764H14.3613C15.4053 15.764 16.2093 15.626 16.7733 15.35C17.3373 15.074 17.6193 14.57 17.6193 13.838C17.6193 13.31 17.4633 12.89 17.1513 12.578C16.8513 12.266 16.4373 12.11 15.9093 12.11C15.3573 12.11 14.9253 12.26 14.6133 12.56C14.3133 12.86 14.1633 13.274 14.1633 13.802H11.7873C11.7753 13.07 11.9313 12.416 12.2553 11.84C12.5793 11.264 13.0533 10.814 13.6773 10.49C14.3133 10.166 15.0573 10.004 15.9093 10.004ZM14.7393 23.126C14.2833 23.126 13.9053 22.988 13.6053 22.712C13.3173 22.424 13.1733 22.07 13.1733 21.65C13.1733 21.23 13.3173 20.882 13.6053 20.606C13.9053 20.318 14.2833 20.174 14.7393 20.174C15.1833 20.174 15.5493 20.318 15.8373 20.606C16.1253 20.882 16.2693 21.23 16.2693 21.65C16.2693 22.07 16.1253 22.424 15.8373 22.712C15.5493 22.988 15.1833 23.126 14.7393 23.126Z" fill="white"/>
</svg>