<svg width="60" height="60" viewBox="0 0 60 60" fill="none" xmlns="http://www.w3.org/2000/svg">
    <path d="M12.8934 57.633C17.6683 57.633 21.539 53.792 21.539 49.0538C21.539 44.3157 17.6683 40.4746 12.8934 40.4746C8.11858 40.4746 4.2478 44.3157 4.2478 49.0538C4.2478 53.792 8.11858 57.633 12.8934 57.633Z" fill="#DB3F27"/>
    <path fill-rule="evenodd" clip-rule="evenodd" d="M12.8403 7.20703C16.8812 7.20703 20.1576 12.2882 20.1576 18.5556C20.1576 24.823 16.8817 29.9042 12.8403 29.9042C8.7988 29.9042 5.52295 24.823 5.52295 18.5556C5.52295 12.2882 8.7993 7.20703 12.8403 7.20703Z" fill="#DB3F27"/>
    <path fill-rule="evenodd" clip-rule="evenodd" d="M36.6817 2.0194C41.2172 3.70496 40.8345 7.81197 38.618 13.6812C36.4014 19.5505 33.1902 24.9596 28.6547 23.2741C24.1193 21.5885 22.2397 15.468 24.4562 9.5987C26.6728 3.72943 32.1465 0.335473 36.6817 2.0194Z" fill="#DB3F27"/>
    <path fill-rule="evenodd" clip-rule="evenodd" d="M56.6109 19.496C59.0445 23.0026 56.6628 25.7944 52.0473 28.942C47.4318 32.0896 42.3293 34.4033 39.8972 30.8968C37.465 27.3902 39.2337 21.9942 43.8492 18.8466C48.4647 15.699 54.1781 15.9895 56.6109 19.496Z" fill="#DB3F27"/>
    <path fill-rule="evenodd" clip-rule="evenodd" d="M29.1648 10.3335C41.4451 10.3335 51.4001 20.2282 51.4001 32.4334C51.4001 44.6386 41.4456 54.535 29.1648 54.535C16.8841 54.535 6.92957 44.6403 6.92957 32.4334C6.92957 20.2266 16.8846 10.3335 29.1648 10.3335Z" fill="url(#paint0_linear_2305_8480)"/>
    <g filter="url(#filter0_i_2305_8480)">
        <path fill-rule="evenodd" clip-rule="evenodd" d="M30.4961 10.3335C42.7764 10.3335 52.7314 20.2282 52.7314 32.4334C52.7314 44.6386 42.7769 54.535 30.4961 54.535C18.2154 54.535 8.26086 44.6403 8.26086 32.4334C8.26086 20.2266 18.2159 10.3335 30.4961 10.3335Z" fill="url(#paint1_angular_2305_8480)"/>
    </g>
    <g filter="url(#filter1_d_2305_8480)">
        <path fill-rule="evenodd" clip-rule="evenodd" d="M30.5184 16.583C33.6862 16.5778 36.7843 17.5052 39.4208 19.2478C42.0573 20.9904 44.1136 23.4699 45.3295 26.3726C46.5454 29.2753 46.8663 32.4707 46.2515 35.5544C45.6368 38.6381 44.114 41.4715 41.8759 43.6961C39.6378 45.9207 36.7849 47.4366 33.6784 48.0518C30.5718 48.6669 27.3512 48.3538 24.4241 47.1521C21.4969 45.9504 18.9947 43.914 17.2343 41.3006C15.4738 38.6873 14.5341 35.6145 14.5341 32.471C14.5307 28.2608 16.2128 24.2217 19.2104 21.2422C22.208 18.2626 26.2756 16.5867 30.5184 16.583Z" fill="url(#paint2_linear_2305_8480)"/>
    </g>
    <g filter="url(#filter2_i_2305_8480)">
        <path fill-rule="evenodd" clip-rule="evenodd" d="M30.2492 48.356C28.2587 48.3194 26.2823 47.9147 24.4241 47.1518C21.4969 45.95 18.9947 43.9137 17.2343 41.3003C15.4738 38.687 14.5341 35.6142 14.5341 32.4707C14.5307 28.2605 16.2128 24.2214 19.2104 21.2419C22.1412 18.3287 26.0949 16.6617 30.2351 16.5854C33.2923 16.6404 36.2723 17.5631 38.8209 19.2476C41.4574 20.9902 43.5137 23.4698 44.7296 26.3724C45.9456 29.2751 46.2664 32.4705 45.6517 35.5542C45.0369 38.6379 43.5141 41.4713 41.276 43.696C39.0379 45.9206 36.1851 47.4364 33.0785 48.0516C32.1421 48.237 31.1952 48.3381 30.2492 48.356Z" fill="url(#paint3_angular_2305_8480)"/>
    </g>
    <path fill-rule="evenodd" clip-rule="evenodd" d="M41.0504 32.4419C41.0504 32.4419 36.6369 32.2102 33.4042 35.4263C30.3153 38.4988 30.531 42.9012 30.531 42.9012C30.531 42.9012 30.8862 38.6114 27.6388 35.3806C25.0361 32.7927 20.0114 32.4419 20.0114 32.4419C20.0114 32.4419 24.2237 33.0701 27.6623 29.65C30.9444 26.3849 30.531 21.981 30.531 21.981C30.531 21.981 30.4376 26.677 33.3872 29.6108C36.5654 32.7731 41.0504 32.4419 41.0504 32.4419Z" fill="url(#paint4_linear_2305_8480)"/>
    <path fill-rule="evenodd" clip-rule="evenodd" d="M38.6534 2.8309C39.8222 3.5008 40.7645 4.49953 41.3613 5.70082C41.9581 6.90212 42.1826 8.25203 42.0064 9.5799C41.8301 10.9078 41.261 12.154 40.3711 13.1609C39.4812 14.1679 38.3104 14.8904 37.0067 15.2372C35.703 15.5839 34.325 15.5393 33.0468 15.1089C31.7687 14.6786 30.6478 13.8818 29.826 12.8194C29.0041 11.757 28.5182 10.4767 28.4295 9.14021C28.3409 7.80376 28.6536 6.47124 29.3281 5.31112C29.7758 4.54021 30.3723 3.86444 31.0835 3.32249C31.7947 2.78054 32.6065 2.38302 33.4726 2.15266C34.3387 1.92231 35.2421 1.86365 36.1311 1.98003C37.02 2.09641 37.8772 2.38554 38.6534 2.8309Z" fill="url(#paint5_linear_2305_8480)"/>
    <path d="M52.4655 29.1264C55.5546 29.1264 58.0588 26.6415 58.0588 23.5761C58.0588 20.5108 55.5546 18.0259 52.4655 18.0259C49.3765 18.0259 46.8723 20.5108 46.8723 23.5761C46.8723 26.6415 49.3765 29.1264 52.4655 29.1264Z" fill="url(#paint6_linear_2305_8480)"/>
    <path fill-rule="evenodd" clip-rule="evenodd" d="M52.4856 27.2214C51.6736 28.2526 49.2616 29.6657 46.4394 30.555C42.8868 31.676 41.2614 31.0396 41.2614 31.0396C41.2614 31.0396 44.282 27.861 47.9515 23.2841C48.1129 23.0661 48.3136 22.8797 48.5435 22.7342C49.9071 21.8025 51.7531 22.0244 52.7502 23.3428C53.1826 23.9132 53.3937 24.6189 53.3452 25.331C53.2966 26.0431 52.9915 26.7141 52.4856 27.2214Z" fill="url(#paint7_linear_2305_8480)"/>
    <path fill-rule="evenodd" clip-rule="evenodd" d="M11.0388 7.56268C12.2211 6.86884 13.5844 6.5387 14.9559 6.61405C16.3275 6.6894 17.6457 7.16684 18.7436 7.98595C19.8416 8.80506 20.67 9.92901 21.124 11.2155C21.5779 12.502 21.637 13.8933 21.2938 15.2131C20.9505 16.533 20.2204 17.7222 19.1958 18.6301C18.1712 19.538 16.8982 20.1238 15.5379 20.3134C14.1776 20.503 12.7912 20.2879 11.5542 19.6953C10.3171 19.1026 9.2851 18.1591 8.5887 16.9842C7.65894 15.4114 7.39474 13.5372 7.85389 11.7716C8.31304 10.006 9.45816 8.49266 11.0388 7.56268Z" fill="url(#paint8_linear_2305_8480)"/>
    <path fill-rule="evenodd" clip-rule="evenodd" d="M19.9767 26.0596C19.9767 26.0596 17.3576 21.7813 13.378 16.3656C13.1818 16.1242 13.0352 15.847 12.9463 15.5498C12.6321 14.7483 12.6345 13.8587 12.9532 13.059C13.2719 12.2593 13.8833 11.6086 14.6649 11.2372C15.4466 10.8659 16.3407 10.8012 17.1684 11.0563C17.996 11.3113 18.6959 11.8673 19.128 12.6127C20.029 13.8169 20.8699 16.8878 21.0057 20.2475C21.1767 24.4769 19.9767 26.0596 19.9767 26.0596Z" fill="url(#paint9_linear_2305_8480)"/>
    <path fill-rule="evenodd" clip-rule="evenodd" d="M39.7809 9.99841C39.8677 11.5077 38.9137 14.5166 37.2203 17.395C35.07 21.0516 33.1998 21.7451 33.1998 21.7451C33.1998 21.7451 33.3127 16.7423 32.8966 10.0539C32.8605 9.74608 32.8872 9.43423 32.975 9.13686C33.4395 7.31261 35.1506 6.09045 37.014 6.45432C37.8289 6.61354 38.5581 7.06025 39.0668 7.71178C39.5755 8.36332 39.8291 9.17562 39.7809 9.99841Z" fill="url(#paint10_linear_2305_8480)"/>
    <path fill-rule="evenodd" clip-rule="evenodd" d="M9.21598 56.4618C10.4159 57.3279 11.8477 57.8214 13.3303 57.8799C14.8129 57.9384 16.2796 57.5593 17.545 56.7905C18.8105 56.0216 19.8177 54.8977 20.4393 53.5607C21.0609 52.2238 21.269 50.734 21.0372 49.2797C20.8054 47.8254 20.1442 46.472 19.1372 45.3907C18.1302 44.3093 16.8226 43.5486 15.3799 43.2048C13.9371 42.861 12.4241 42.9495 11.032 43.4591C9.63996 43.9687 8.4315 44.8766 7.55948 46.0678C6.39266 47.665 5.91179 49.6562 6.22233 51.6046C6.53286 53.5531 7.60944 55.2999 9.21598 56.4618Z" fill="url(#paint11_linear_2305_8480)"/>
    <path fill-rule="evenodd" clip-rule="evenodd" d="M28.9372 49.8126C28.9372 49.8126 27.709 51.7853 22.986 53.4056C19.2575 54.6849 15.5449 55.0896 13.8218 54.6441C12.8132 54.5035 11.8959 53.9885 11.2549 53.2032C10.6139 52.4178 10.2969 51.4204 10.3678 50.4122C10.4387 49.404 10.8923 48.46 11.6371 47.7707C12.3819 47.0813 13.3624 46.6978 14.3808 46.6976C14.7451 46.6833 15.1094 46.7235 15.4617 46.8168C23.1159 48.8075 28.9372 49.8126 28.9372 49.8126Z" fill="url(#paint12_linear_2305_8480)"/>
    <defs>
        <filter id="filter0_i_2305_8480" x="8.26086" y="10.3335" width="44.4706" height="44.2017" filterUnits="userSpaceOnUse" color-interpolation-filters="sRGB">
            <feFlood flood-opacity="0" result="BackgroundImageFix"/>
            <feBlend mode="normal" in="SourceGraphic" in2="BackgroundImageFix" result="shape"/>
            <feColorMatrix in="SourceAlpha" type="matrix" values="0 0 0 0 0 0 0 0 0 0 0 0 0 0 0 0 0 0 127 0" result="hardAlpha"/>
            <feOffset dx="1" dy="1"/>
            <feComposite in2="hardAlpha" operator="arithmetic" k2="-1" k3="1"/>
            <feColorMatrix type="matrix" values="0 0 0 0 1 0 0 0 0 0.970854 0 0 0 0 0.81784 0 0 0 0.4 0"/>
            <feBlend mode="normal" in2="shape" result="effect1_innerShadow_2305_8480"/>
        </filter>
        <filter id="filter1_d_2305_8480" x="14.5341" y="16.583" width="33.0219" height="32.7759" filterUnits="userSpaceOnUse" color-interpolation-filters="sRGB">
            <feFlood flood-opacity="0" result="BackgroundImageFix"/>
            <feColorMatrix in="SourceAlpha" type="matrix" values="0 0 0 0 0 0 0 0 0 0 0 0 0 0 0 0 0 0 127 0" result="hardAlpha"/>
            <feOffset dx="1" dy="1"/>
            <feComposite in2="hardAlpha" operator="out"/>
            <feColorMatrix type="matrix" values="0 0 0 0 1 0 0 0 0 0.988111 0 0 0 0 0.702786 0 0 0 0.4 0"/>
            <feBlend mode="normal" in2="BackgroundImageFix" result="effect1_dropShadow_2305_8480"/>
            <feBlend mode="normal" in="SourceGraphic" in2="effect1_dropShadow_2305_8480" result="shape"/>
        </filter>
        <filter id="filter2_i_2305_8480" x="14.5341" y="16.5854" width="31.422" height="31.7705" filterUnits="userSpaceOnUse" color-interpolation-filters="sRGB">
            <feFlood flood-opacity="0" result="BackgroundImageFix"/>
            <feBlend mode="normal" in="SourceGraphic" in2="BackgroundImageFix" result="shape"/>
            <feColorMatrix in="SourceAlpha" type="matrix" values="0 0 0 0 0 0 0 0 0 0 0 0 0 0 0 0 0 0 127 0" result="hardAlpha"/>
            <feOffset dx="1" dy="1"/>
            <feComposite in2="hardAlpha" operator="arithmetic" k2="-1" k3="1"/>
            <feColorMatrix type="matrix" values="0 0 0 0 1 0 0 0 0 0.970854 0 0 0 0 0.81784 0 0 0 0.4 0"/>
            <feBlend mode="normal" in2="shape" result="effect1_innerShadow_2305_8480"/>
        </filter>
        <linearGradient id="paint0_linear_2305_8480" x1="29.1645" y1="54.5333" x2="29.1645" y2="10.3335" gradientUnits="userSpaceOnUse">
            <stop stop-color="#FFB052"/>
            <stop offset="1" stop-color="#EE9A1B"/>
        </linearGradient>
        <radialGradient id="paint1_angular_2305_8480" cx="0" cy="0" r="1" gradientUnits="userSpaceOnUse" gradientTransform="translate(30.4958 32.4334) rotate(-90) scale(22.0999 22.2709)">
            <stop offset="0.299565" stop-color="#FFDE7B"/>
            <stop offset="0.33965" stop-color="#FFF2C9"/>
            <stop offset="0.401811" stop-color="#FFDB6E"/>
            <stop offset="0.755761" stop-color="#FFCE3A"/>
            <stop offset="0.782561" stop-color="#FFEBB0"/>
            <stop offset="0.802798" stop-color="#FFD24C"/>
            <stop offset="0.92394" stop-color="#FFDE7B"/>
        </radialGradient>
        <linearGradient id="paint2_linear_2305_8480" x1="30.5189" y1="48.3574" x2="30.5189" y2="16.5863" gradientUnits="userSpaceOnUse">
            <stop stop-color="#E1931E"/>
            <stop offset="1" stop-color="#EBAF0B"/>
        </linearGradient>
        <radialGradient id="paint3_angular_2305_8480" cx="0" cy="0" r="1" gradientUnits="userSpaceOnUse" gradientTransform="translate(30.2449 32.4701) rotate(-90) scale(15.8847 15.7363)">
            <stop offset="0.274914" stop-color="#F9B735"/>
            <stop offset="0.34656" stop-color="#FFF490"/>
            <stop offset="0.401811" stop-color="#FFD952"/>
            <stop offset="0.650783" stop-color="#F9B735"/>
            <stop offset="0.72523" stop-color="#FFEB81"/>
            <stop offset="0.767778" stop-color="#F9B735"/>
            <stop offset="0.92394" stop-color="#FFDD64"/>
        </radialGradient>
        <linearGradient id="paint4_linear_2305_8480" x1="30.5317" y1="42.9028" x2="30.5317" y2="21.981" gradientUnits="userSpaceOnUse">
            <stop stop-color="#FFF4B7"/>
            <stop offset="1" stop-color="#FFDD3D"/>
        </linearGradient>
        <linearGradient id="paint5_linear_2305_8480" x1="35.4794" y1="1.9253" x2="35.01" y2="15.4688" gradientUnits="userSpaceOnUse">
            <stop stop-color="#E3452D"/>
            <stop offset="1" stop-color="#FAAF5E"/>
        </linearGradient>
        <linearGradient id="paint6_linear_2305_8480" x1="52.6617" y1="17.9973" x2="52.2752" y2="29.1552" gradientUnits="userSpaceOnUse">
            <stop stop-color="#E3452D"/>
            <stop offset="1" stop-color="#FAAF5E"/>
        </linearGradient>
        <linearGradient id="paint7_linear_2305_8480" x1="53.3519" y1="29.3621" x2="41.2919" y2="23.9511" gradientUnits="userSpaceOnUse">
            <stop stop-color="#E3D6D3"/>
            <stop offset="1" stop-color="white"/>
        </linearGradient>
        <linearGradient id="paint8_linear_2305_8480" x1="14.8056" y1="6.6114" x2="14.3284" y2="20.38" gradientUnits="userSpaceOnUse">
            <stop stop-color="#E3452D"/>
            <stop offset="1" stop-color="#FAAF5E"/>
        </linearGradient>
        <linearGradient id="paint9_linear_2305_8480" x1="21.02" y1="20.315" x2="12.7323" y2="16.5965" gradientUnits="userSpaceOnUse">
            <stop stop-color="#E3D6D3"/>
            <stop offset="1" stop-color="white"/>
        </linearGradient>
        <linearGradient id="paint10_linear_2305_8480" x1="39.786" y1="15.5944" x2="32.8975" y2="12.5036" gradientUnits="userSpaceOnUse">
            <stop stop-color="#E3D6D3"/>
            <stop offset="1" stop-color="white"/>
        </linearGradient>
        <linearGradient id="paint11_linear_2305_8480" x1="13.8902" y1="42.9986" x2="13.3743" y2="57.8882" gradientUnits="userSpaceOnUse">
            <stop stop-color="#E3452D"/>
            <stop offset="1" stop-color="#FAAF5E"/>
        </linearGradient>
        <linearGradient id="paint12_linear_2305_8480" x1="10.4555" y1="46.696" x2="28.7934" y2="54.9237" gradientUnits="userSpaceOnUse">
            <stop stop-color="#E3D6D3"/>
            <stop offset="1" stop-color="white"/>
        </linearGradient>
    </defs>
</svg>
